<svg width="218" height="60" viewBox="0 0 218 60" fill="none" xmlns="http://www.w3.org/2000/svg">
<path d="M21.0117 4.49121C20.748 4.48535 20.499 4.62012 20.3584 4.84277C20.2178 5.06836 20.209 5.34961 20.3291 5.58398L22.3359 9.59765C21.4805 10.0869 20.6836 10.6377 19.9688 11.2383C17.4053 13.4062 15.75 16.1631 15.75 18.75V20.332C15.1172 19.8428 14.3584 19.5 13.5 19.5C11.4375 19.5 9.75 21.1875 9.75 23.25V36.75C9.75 38.8125 11.4375 40.5 13.5 40.5C14.3584 40.5 15.1172 40.1572 15.75 39.668V42.75C15.75 43.9834 16.7666 45 18 45H20.25V51.75C20.25 53.8125 21.9375 55.5 24 55.5C26.0625 55.5 27.75 53.8125 27.75 51.75V45H32.25V51.75C32.25 53.8125 33.9375 55.5 36 55.5C38.0625 55.5 39.75 53.8125 39.75 51.75V45H42C43.2334 45 44.25 43.9834 44.25 42.75V39.668C44.8828 40.1572 45.6416 40.5 46.5 40.5C48.5625 40.5 50.25 38.8125 50.25 36.75V23.25C50.25 21.1875 48.5625 19.5 46.5 19.5C45.6416 19.5 44.8828 19.8428 44.25 20.332V18.75C44.25 16.1631 42.5947 13.4062 40.0312 11.2383C39.3164 10.6377 38.5195 10.0869 37.6641 9.59765L39.6709 5.58398C39.7939 5.34668 39.7822 5.05957 39.6357 4.83398C39.4893 4.6084 39.2344 4.47656 38.9648 4.49121C38.6924 4.50586 38.4492 4.66699 38.3291 4.91602L36.3281 8.91211C34.4268 8.04199 32.2822 7.5 30 7.5C27.7178 7.5 25.5732 8.04199 23.6719 8.91211L21.6709 4.91602C21.5479 4.66113 21.293 4.49707 21.0117 4.49121ZM30 9C33.5273 9 36.7412 10.4268 39.0615 12.3867C41.3818 14.3437 42.75 16.8369 42.75 18.75V23.25H44.25C44.25 21.999 45.249 21 46.5 21C47.751 21 48.75 21.999 48.75 23.25V36.75C48.75 38.001 47.751 39 46.5 39C45.249 39 44.25 38.001 44.25 36.75H42.75V42.75C42.75 43.1748 42.4248 43.5 42 43.5H38.25V51.75C38.25 53.001 37.251 54 36 54C34.749 54 33.75 53.001 33.75 51.75V43.5H26.25V51.75C26.25 53.001 25.251 54 24 54C22.749 54 21.75 53.001 21.75 51.75V43.5H18C17.5752 43.5 17.25 43.1748 17.25 42.75V36.75H15.75C15.75 38.001 14.751 39 13.5 39C12.249 39 11.25 38.001 11.25 36.75V23.25C11.25 21.999 12.249 21 13.5 21C14.751 21 15.75 21.999 15.75 23.25H17.25V18.75C17.25 16.8369 18.6182 14.3437 20.9385 12.3867C23.2588 10.4268 26.4727 9 30 9ZM24.7471 12.75C23.9209 12.75 23.25 13.418 23.25 14.2471C23.25 15.0791 23.9209 15.75 24.7471 15.75C25.5791 15.75 26.25 15.0791 26.25 14.2471C26.25 13.418 25.5791 12.75 24.7471 12.75ZM35.2471 12.75C34.4209 12.75 33.75 13.418 33.75 14.2471C33.75 15.0791 34.4209 15.75 35.2471 15.75C36.0791 15.75 36.75 15.0791 36.75 14.2471C36.75 13.418 36.0791 12.75 35.2471 12.75ZM19.5 18C19.0869 18 18.75 18.3369 18.75 18.75C18.75 19.1631 19.0869 19.5 19.5 19.5C19.9131 19.5 20.25 19.1631 20.25 18.75C20.25 18.3369 19.9131 18 19.5 18ZM22.5 18C22.0869 18 21.75 18.3369 21.75 18.75C21.75 19.1631 22.0869 19.5 22.5 19.5C22.9131 19.5 23.25 19.1631 23.25 18.75C23.25 18.3369 22.9131 18 22.5 18ZM25.5 18C25.0869 18 24.75 18.3369 24.75 18.75C24.75 19.1631 25.0869 19.5 25.5 19.5C25.9131 19.5 26.25 19.1631 26.25 18.75C26.25 18.3369 25.9131 18 25.5 18ZM28.5 18C28.0869 18 27.75 18.3369 27.75 18.75C27.75 19.1631 28.0869 19.5 28.5 19.5C28.9131 19.5 29.25 19.1631 29.25 18.75C29.25 18.3369 28.9131 18 28.5 18ZM31.5 18C31.0869 18 30.75 18.3369 30.75 18.75C30.75 19.1631 31.0869 19.5 31.5 19.5C31.9131 19.5 32.25 19.1631 32.25 18.75C32.25 18.3369 31.9131 18 31.5 18ZM34.5 18C34.0869 18 33.75 18.3369 33.75 18.75C33.75 19.1631 34.0869 19.5 34.5 19.5C34.9131 19.5 35.25 19.1631 35.25 18.75C35.25 18.3369 34.9131 18 34.5 18ZM37.5 18C37.0869 18 36.75 18.3369 36.75 18.75C36.75 19.1631 37.0869 19.5 37.5 19.5C37.9131 19.5 38.25 19.1631 38.25 18.75C38.25 18.3369 37.9131 18 37.5 18ZM40.5 18C40.0869 18 39.75 18.3369 39.75 18.75C39.75 19.1631 40.0869 19.5 40.5 19.5C40.9131 19.5 41.25 19.1631 41.25 18.75C41.25 18.3369 40.9131 18 40.5 18ZM16.5 24.75C16.0869 24.75 15.75 25.0869 15.75 25.5C15.75 25.9131 16.0869 26.25 16.5 26.25C16.9131 26.25 17.25 25.9131 17.25 25.5C17.25 25.0869 16.9131 24.75 16.5 24.75ZM43.5 24.75C43.0869 24.75 42.75 25.0869 42.75 25.5C42.75 25.9131 43.0869 26.25 43.5 26.25C43.9131 26.25 44.25 25.9131 44.25 25.5C44.25 25.0869 43.9131 24.75 43.5 24.75ZM16.5 27.75C16.0869 27.75 15.75 28.0869 15.75 28.5C15.75 28.9131 16.0869 29.25 16.5 29.25C16.9131 29.25 17.25 28.9131 17.25 28.5C17.25 28.0869 16.9131 27.75 16.5 27.75ZM43.5 27.75C43.0869 27.75 42.75 28.0869 42.75 28.5C42.75 28.9131 43.0869 29.25 43.5 29.25C43.9131 29.25 44.25 28.9131 44.25 28.5C44.25 28.0869 43.9131 27.75 43.5 27.75ZM16.5 30.75C16.0869 30.75 15.75 31.0869 15.75 31.5C15.75 31.9131 16.0869 32.25 16.5 32.25C16.9131 32.25 17.25 31.9131 17.25 31.5C17.25 31.0869 16.9131 30.75 16.5 30.75ZM43.5 30.75C43.0869 30.75 42.75 31.0869 42.75 31.5C42.75 31.9131 43.0869 32.25 43.5 32.25C43.9131 32.25 44.25 31.9131 44.25 31.5C44.25 31.0869 43.9131 30.75 43.5 30.75ZM16.5 33.75C16.0869 33.75 15.75 34.0869 15.75 34.5C15.75 34.9131 16.0869 35.25 16.5 35.25C16.9131 35.25 17.25 34.9131 17.25 34.5C17.25 34.0869 16.9131 33.75 16.5 33.75ZM43.5 33.75C43.0869 33.75 42.75 34.0869 42.75 34.5C42.75 34.9131 43.0869 35.25 43.5 35.25C43.9131 35.25 44.25 34.9131 44.25 34.5C44.25 34.0869 43.9131 33.75 43.5 33.75ZM24 43.5C23.5869 43.5 23.25 43.8369 23.25 44.25C23.25 44.6631 23.5869 45 24 45C24.4131 45 24.75 44.6631 24.75 44.25C24.75 43.8369 24.4131 43.5 24 43.5ZM36 43.5C35.5869 43.5 35.25 43.8369 35.25 44.25C35.25 44.6631 35.5869 45 36 45C36.4131 45 36.75 44.6631 36.75 44.25C36.75 43.8369 36.4131 43.5 36 43.5Z" fill="black"/>
<path d="M75.416 15.048H80.216C81.8 15.048 82.984 15.44 83.768 16.224C84.552 17.008 84.944 18.024 84.944 19.272C84.944 20.504 84.56 21.504 83.792 22.272C83.024 23.024 81.872 23.4 80.336 23.4H77.144V30H75.416V15.048ZM80.144 21.912C81.2 21.912 81.976 21.688 82.472 21.24C82.968 20.776 83.216 20.136 83.216 19.32C83.216 18.536 82.96 17.896 82.448 17.4C81.936 16.888 81.176 16.632 80.168 16.632H77.144V21.912H80.144ZM91.856 18.792C93.424 18.792 94.616 19.2 95.432 20.016C96.264 20.832 96.68 22.216 96.68 24.168V30H94.808V28.32C94.136 29.616 92.888 30.264 91.064 30.264C89.848 30.264 88.896 29.992 88.208 29.448C87.52 28.888 87.176 28.152 87.176 27.24C87.176 26.472 87.424 25.8 87.92 25.224C88.416 24.648 89.08 24.208 89.912 23.904C90.76 23.584 91.688 23.424 92.696 23.424C93.608 23.424 94.432 23.472 95.168 23.568C95.072 22.336 94.744 21.472 94.184 20.976C93.64 20.464 92.824 20.208 91.736 20.208C91.192 20.208 90.664 20.312 90.152 20.52C89.656 20.728 89.2 21.032 88.784 21.432L87.944 20.328C88.968 19.304 90.272 18.792 91.856 18.792ZM91.232 28.944C92.416 28.944 93.352 28.6 94.04 27.912C94.728 27.208 95.104 26.2 95.168 24.888C94.448 24.776 93.672 24.72 92.84 24.72C91.624 24.72 90.664 24.92 89.96 25.32C89.256 25.72 88.904 26.328 88.904 27.144C88.904 28.344 89.68 28.944 91.232 28.944ZM106.088 18.768C107.256 18.768 108.224 19.168 108.992 19.968L108.224 21.312L108.128 21.528L107.96 21.432C107.912 21.256 107.856 21.12 107.792 21.024C107.728 20.912 107.592 20.792 107.384 20.664C106.968 20.392 106.496 20.256 105.968 20.256C105.392 20.256 104.848 20.4 104.336 20.688C103.824 20.976 103.408 21.416 103.088 22.008C102.768 22.584 102.608 23.312 102.608 24.192V30.024H100.856V19.032H102.656L102.608 21.048C102.912 20.328 103.376 19.768 104 19.368C104.64 18.968 105.336 18.768 106.088 18.768ZM115.856 18.792C117.424 18.792 118.616 19.2 119.432 20.016C120.264 20.832 120.68 22.216 120.68 24.168V30H118.808V28.32C118.136 29.616 116.888 30.264 115.064 30.264C113.848 30.264 112.896 29.992 112.208 29.448C111.52 28.888 111.176 28.152 111.176 27.24C111.176 26.472 111.424 25.8 111.92 25.224C112.416 24.648 113.08 24.208 113.912 23.904C114.76 23.584 115.688 23.424 116.696 23.424C117.608 23.424 118.432 23.472 119.168 23.568C119.072 22.336 118.744 21.472 118.184 20.976C117.64 20.464 116.824 20.208 115.736 20.208C115.192 20.208 114.664 20.312 114.152 20.52C113.656 20.728 113.2 21.032 112.784 21.432L111.944 20.328C112.968 19.304 114.272 18.792 115.856 18.792ZM115.232 28.944C116.416 28.944 117.352 28.6 118.04 27.912C118.728 27.208 119.104 26.2 119.168 24.888C118.448 24.776 117.672 24.72 116.84 24.72C115.624 24.72 114.664 24.92 113.96 25.32C113.256 25.72 112.904 26.328 112.904 27.144C112.904 28.344 113.68 28.944 115.232 28.944ZM142.376 25.632H137.552L136.04 30H134.384L139.904 14.784H140.096L145.616 30H143.888L142.376 25.632ZM141.944 24.336L139.976 18.624L138.008 24.336H141.944ZM147.728 19.032H149.408V20.976C149.84 20.304 150.384 19.768 151.04 19.368C151.696 18.968 152.392 18.768 153.128 18.768C154.104 18.768 154.88 19.144 155.456 19.896C156.048 20.632 156.344 21.784 156.344 23.352V30H154.664V23.4C154.664 22.312 154.48 21.52 154.112 21.024C153.744 20.528 153.256 20.28 152.648 20.28C152.152 20.28 151.648 20.424 151.136 20.712C150.64 21 150.224 21.408 149.888 21.936C149.568 22.448 149.408 23.032 149.408 23.688V30H147.728V19.032ZM163.616 30.24C162.832 30.24 162.096 30.024 161.408 29.592C160.72 29.144 160.16 28.48 159.728 27.6C159.296 26.72 159.08 25.656 159.08 24.408C159.08 23.144 159.304 22.088 159.752 21.24C160.2 20.392 160.776 19.768 161.48 19.368C162.184 18.952 162.928 18.744 163.712 18.744C164.448 18.744 165.088 18.912 165.632 19.248C166.192 19.584 166.616 20.048 166.904 20.64V14.04H168.728V14.208C168.632 14.304 168.568 14.408 168.536 14.52C168.52 14.632 168.512 14.824 168.512 15.096L168.536 28.296C168.536 28.68 168.544 29 168.56 29.256C168.592 29.496 168.664 29.744 168.776 30H167.072C166.96 29.744 166.888 29.496 166.856 29.256C166.84 29 166.832 28.68 166.832 28.296C166.48 28.904 166.024 29.384 165.464 29.736C164.92 30.072 164.304 30.24 163.616 30.24ZM163.88 28.728C164.872 28.728 165.6 28.336 166.064 27.552C166.528 26.768 166.76 25.736 166.76 24.456C166.76 23.16 166.504 22.12 165.992 21.336C165.496 20.552 164.744 20.16 163.736 20.16C162.776 20.16 162.04 20.52 161.528 21.24C161.016 21.944 160.76 22.912 160.76 24.144C160.76 25.552 161.024 26.672 161.552 27.504C162.096 28.32 162.872 28.728 163.88 28.728ZM178.088 18.768C179.256 18.768 180.224 19.168 180.992 19.968L180.224 21.312L180.128 21.528L179.96 21.432C179.912 21.256 179.856 21.12 179.792 21.024C179.728 20.912 179.592 20.792 179.384 20.664C178.968 20.392 178.496 20.256 177.968 20.256C177.392 20.256 176.848 20.4 176.336 20.688C175.824 20.976 175.408 21.416 175.088 22.008C174.768 22.584 174.608 23.312 174.608 24.192V30.024H172.856V19.032H174.656L174.608 21.048C174.912 20.328 175.376 19.768 176 19.368C176.64 18.968 177.336 18.768 178.088 18.768ZM188 30.192C187.024 30.192 186.152 29.952 185.384 29.472C184.616 28.992 184.016 28.32 183.584 27.456C183.152 26.592 182.936 25.608 182.936 24.504C182.936 23.4 183.152 22.416 183.584 21.552C184.016 20.688 184.616 20.016 185.384 19.536C186.152 19.04 187.024 18.792 188 18.792C188.976 18.792 189.848 19.04 190.616 19.536C191.384 20.016 191.984 20.688 192.416 21.552C192.848 22.416 193.064 23.4 193.064 24.504C193.064 25.608 192.848 26.592 192.416 27.456C191.984 28.32 191.384 28.992 190.616 29.472C189.848 29.952 188.976 30.192 188 30.192ZM188 28.752C188.624 28.752 189.176 28.568 189.656 28.2C190.152 27.832 190.536 27.328 190.808 26.688C191.096 26.032 191.24 25.296 191.24 24.48C191.24 23.232 190.936 22.216 190.328 21.432C189.72 20.632 188.944 20.232 188 20.232C187.056 20.232 186.28 20.632 185.672 21.432C185.064 22.216 184.76 23.232 184.76 24.48C184.76 25.296 184.896 26.032 185.168 26.688C185.456 27.328 185.84 27.832 186.32 28.2C186.816 28.568 187.376 28.752 188 28.752ZM196.4 28.608H199.208V20.424H196.544V19.032H200.936V28.608H203.504V30H196.4V28.608ZM199.976 16.728C199.64 16.728 199.352 16.608 199.112 16.368C198.872 16.128 198.752 15.84 198.752 15.504C198.752 15.152 198.864 14.856 199.088 14.616C199.328 14.376 199.624 14.256 199.976 14.256C200.312 14.256 200.6 14.384 200.84 14.64C201.096 14.88 201.224 15.168 201.224 15.504C201.224 15.84 201.096 16.128 200.84 16.368C200.6 16.608 200.312 16.728 199.976 16.728ZM211.616 30.24C210.832 30.24 210.096 30.024 209.408 29.592C208.72 29.144 208.16 28.48 207.728 27.6C207.296 26.72 207.08 25.656 207.08 24.408C207.08 23.144 207.304 22.088 207.752 21.24C208.2 20.392 208.776 19.768 209.48 19.368C210.184 18.952 210.928 18.744 211.712 18.744C212.448 18.744 213.088 18.912 213.632 19.248C214.192 19.584 214.616 20.048 214.904 20.64V14.04H216.728V14.208C216.632 14.304 216.568 14.408 216.536 14.52C216.52 14.632 216.512 14.824 216.512 15.096L216.536 28.296C216.536 28.68 216.544 29 216.56 29.256C216.592 29.496 216.664 29.744 216.776 30H215.072C214.96 29.744 214.888 29.496 214.856 29.256C214.84 29 214.832 28.68 214.832 28.296C214.48 28.904 214.024 29.384 213.464 29.736C212.92 30.072 212.304 30.24 211.616 30.24ZM211.88 28.728C212.872 28.728 213.6 28.336 214.064 27.552C214.528 26.768 214.76 25.736 214.76 24.456C214.76 23.16 214.504 22.12 213.992 21.336C213.496 20.552 212.744 20.16 211.736 20.16C210.776 20.16 210.04 20.52 209.528 21.24C209.016 21.944 208.76 22.912 208.76 24.144C208.76 25.552 209.024 26.672 209.552 27.504C210.096 28.32 210.872 28.728 211.88 28.728Z" fill="black"/>
</svg>
