<svg width="125" height="53" viewBox="0 0 125 53" fill="none" xmlns="http://www.w3.org/2000/svg">
<g filter="url(#filter0_di)">
<rect x="4" width="117" height="45" rx="22.5" fill="#008B27" fill-opacity="0.5"/>
</g>
<path d="M21.2 29.325C20.2 29.325 19.1833 28.8833 18.15 28L17.95 29H14.35L17.75 13.1L21.45 12.6L18.45 26.625C18.9167 26.9583 19.3917 27.125 19.875 27.125C20.825 27.125 21.6583 26.575 22.375 25.475C23.1083 24.375 23.675 22.975 24.075 21.275C24.475 19.575 24.675 17.8583 24.675 16.125C24.675 14.4917 24.35 13.3 23.7 12.55C23.0667 11.7833 22.175 11.4 21.025 11.4C19.775 11.4 18.65 11.65 17.65 12.15C16.6667 12.6333 15.8917 13.3333 15.325 14.25C14.7583 15.1667 14.475 16.2417 14.475 17.475C14.475 18.0917 14.5333 18.525 14.65 18.775C14.7667 19.0083 14.825 19.1417 14.825 19.175C13.9583 19.175 13.2917 18.9917 12.825 18.625C12.375 18.2583 12.15 17.6667 12.15 16.85C12.15 15.7167 12.575 14.6417 13.425 13.625C14.275 12.6083 15.4083 11.7917 16.825 11.175C18.2583 10.5583 19.8 10.25 21.45 10.25C23.7333 10.25 25.4167 10.925 26.5 12.275C27.5833 13.625 28.125 15.35 28.125 17.45C28.125 19.35 27.8 21.225 27.15 23.075C26.5167 24.9083 25.6667 26.4083 24.6 27.575C23.5333 28.7417 22.4 29.325 21.2 29.325ZM32.1521 29.15C30.9188 29.15 29.9605 28.8333 29.2771 28.2C28.5938 27.55 28.2521 26.5417 28.2521 25.175C28.2521 24.025 28.4771 22.7583 28.9271 21.375C29.3771 19.9917 30.1105 18.8 31.1271 17.8C32.1438 16.7833 33.4355 16.275 35.0021 16.275C36.8355 16.275 37.7521 17.075 37.7521 18.675C37.7521 19.6083 37.4855 20.4667 36.9521 21.25C36.4188 22.0333 35.7105 22.6667 34.8271 23.15C33.9438 23.6167 33.0021 23.8833 32.0021 23.95C31.9688 24.45 31.9521 24.7833 31.9521 24.95C31.9521 25.7667 32.0938 26.325 32.3771 26.625C32.6605 26.9083 33.1188 27.05 33.7521 27.05C34.6521 27.05 35.4188 26.8417 36.0521 26.425C36.7021 26.0083 37.4105 25.375 38.1771 24.525H39.0271C37.1771 27.6083 34.8855 29.15 32.1521 29.15ZM32.2021 22.75C32.8188 22.7167 33.4021 22.5 33.9521 22.1C34.5188 21.7 34.9688 21.1917 35.3021 20.575C35.6521 19.9583 35.8271 19.3083 35.8271 18.625C35.8271 17.9417 35.6188 17.6 35.2021 17.6C34.6021 17.6 34.0105 18.125 33.4271 19.175C32.8605 20.225 32.4521 21.4167 32.2021 22.75ZM41.0219 29.15C40.2219 29.15 39.5469 29 38.9969 28.7C38.4469 28.3833 38.0385 27.9833 37.7719 27.5C37.5052 27 37.3719 26.4833 37.3719 25.95C37.3719 25.4 37.5052 24.925 37.7719 24.525C38.0219 24.1083 38.3302 23.8083 38.6969 23.625C39.3469 22.4583 39.9135 21.2833 40.3969 20.1C40.8802 18.9 41.3385 17.6083 41.7719 16.225L45.4719 15.725C45.5552 17.8583 45.6969 20.1667 45.8969 22.65C45.9802 23.65 46.0219 24.375 46.0219 24.825C46.0219 25.2083 45.9885 25.525 45.9219 25.775C46.7052 25.325 47.3052 24.9083 47.7219 24.525H48.7719C47.7052 25.7583 46.4302 26.8 44.9469 27.65C44.4635 28.1667 43.8635 28.55 43.1469 28.8C42.4469 29.0333 41.7385 29.15 41.0219 29.15ZM40.2219 27.175C40.8385 27.175 41.3552 26.9917 41.7719 26.625C42.1885 26.2583 42.3969 25.6667 42.3969 24.85C42.3969 24.35 42.3469 23.65 42.2469 22.75C42.0802 20.85 41.9719 19.575 41.9219 18.925C41.5219 20.2417 40.8469 21.8167 39.8969 23.65C40.2802 23.85 40.4719 24.1417 40.4719 24.525C40.4719 24.8417 40.3635 25.125 40.1469 25.375C39.9469 25.625 39.6885 25.75 39.3719 25.75C39.0219 25.75 38.7969 25.6417 38.6969 25.425C38.6969 26.025 38.8135 26.4667 39.0469 26.75C39.2969 27.0333 39.6885 27.175 40.2219 27.175ZM51.2928 29.15C50.0594 29.15 49.1011 28.8333 48.4178 28.2C47.7344 27.55 47.3928 26.5417 47.3928 25.175C47.3928 24.025 47.6178 22.7583 48.0678 21.375C48.5344 19.9917 49.2678 18.8 50.2678 17.8C51.2844 16.7833 52.5678 16.275 54.1178 16.275C55.1178 16.275 55.8261 16.4917 56.2428 16.925C56.6761 17.3583 56.8928 17.9083 56.8928 18.575C56.8928 19.1583 56.7678 19.6083 56.5178 19.925C56.2678 20.2417 55.9511 20.4 55.5678 20.4C55.2844 20.4 54.9928 20.3 54.6928 20.1C54.8928 19.55 54.9928 19.0583 54.9928 18.625C54.9928 18.3083 54.9344 18.0583 54.8178 17.875C54.7011 17.6917 54.5261 17.6 54.2928 17.6C53.7928 17.6 53.2928 18.0083 52.7928 18.825C52.2928 19.6417 51.8844 20.6333 51.5678 21.8C51.2511 22.9667 51.0928 24.0167 51.0928 24.95C51.0928 25.7667 51.2344 26.325 51.5178 26.625C51.8011 26.9083 52.2594 27.05 52.8928 27.05C53.7928 27.05 54.5594 26.8417 55.1928 26.425C55.8428 26.0083 56.5511 25.375 57.3178 24.525H58.1678C56.3178 27.6083 54.0261 29.15 51.2928 29.15ZM60.3125 29.15C59.3625 29.15 58.5708 28.825 57.9375 28.175C57.3042 27.525 56.9875 26.5083 56.9875 25.125C56.9875 23.8917 57.2292 22.6 57.7125 21.25C58.2125 19.8833 58.9458 18.7333 59.9125 17.8C60.8958 16.85 62.0625 16.375 63.4125 16.375C64.0958 16.375 64.6042 16.4917 64.9375 16.725C65.2708 16.9583 65.4375 17.2667 65.4375 17.65V17.825L65.7125 16.5H69.3125L67.5125 25C67.4458 25.25 67.4125 25.5167 67.4125 25.8C67.4125 26.5167 67.7542 26.875 68.4375 26.875C68.9042 26.875 69.3042 26.6583 69.6375 26.225C69.9875 25.7917 70.2625 25.225 70.4625 24.525H71.5125C70.8958 26.325 70.1292 27.55 69.2125 28.2C68.3125 28.8333 67.4042 29.15 66.4875 29.15C65.7875 29.15 65.2208 28.9583 64.7875 28.575C64.3708 28.175 64.1208 27.6 64.0375 26.85C63.5542 27.5333 63.0125 28.0917 62.4125 28.525C61.8292 28.9417 61.1292 29.15 60.3125 29.15ZM61.9375 26.725C62.3542 26.725 62.7625 26.5333 63.1625 26.15C63.5792 25.75 63.8625 25.2083 64.0125 24.525L65.2125 18.875C65.2125 18.6583 65.1292 18.45 64.9625 18.25C64.7958 18.0333 64.5375 17.925 64.1875 17.925C63.5208 17.925 62.9208 18.3167 62.3875 19.1C61.8542 19.8667 61.4375 20.8 61.1375 21.9C60.8375 22.9833 60.6875 23.9417 60.6875 24.775C60.6875 25.6083 60.8042 26.1417 61.0375 26.375C61.2875 26.6083 61.5875 26.725 61.9375 26.725ZM72.1717 16.5H75.7717L75.4467 18.05C76.0133 17.55 76.5217 17.1667 76.9717 16.9C77.4383 16.6333 77.9383 16.5 78.4717 16.5C79.005 16.5 79.4217 16.6833 79.7217 17.05C80.0383 17.4167 80.1967 17.8583 80.1967 18.375C80.1967 18.8583 80.0383 19.2833 79.7217 19.65C79.405 20.0167 78.9633 20.2 78.3967 20.2C78.03 20.2 77.78 20.1167 77.6467 19.95C77.53 19.7667 77.4383 19.5083 77.3717 19.175C77.3217 18.9583 77.2717 18.8 77.2217 18.7C77.1717 18.6 77.08 18.55 76.9467 18.55C76.5967 18.55 76.2967 18.625 76.0467 18.775C75.8133 18.9083 75.505 19.15 75.1217 19.5L73.1217 29H69.5217L72.1717 16.5ZM84.2961 35.25C83.4961 35.25 82.8294 35.0417 82.2961 34.625C81.7628 34.2083 81.4961 33.6083 81.4961 32.825C81.4961 31.875 81.8794 31.1083 82.6461 30.525C83.4128 29.9583 84.3878 29.4833 85.5711 29.1L85.8711 27.775C85.0211 28.6917 84.0211 29.15 82.8711 29.15C81.9211 29.15 81.1294 28.825 80.4961 28.175C79.8628 27.525 79.5461 26.5083 79.5461 25.125C79.5461 23.8917 79.7878 22.6 80.2711 21.25C80.7711 19.8833 81.5044 18.7333 82.4711 17.8C83.4544 16.85 84.6211 16.375 85.9711 16.375C86.6544 16.375 87.1628 16.4917 87.4961 16.725C87.8294 16.9583 87.9961 17.2667 87.9961 17.65V17.8L88.2711 16.5H91.8711L89.3961 28.1C90.1961 27.8333 90.8378 27.4333 91.3211 26.9C91.8044 26.3667 92.2128 25.575 92.5461 24.525H93.5961C93.1461 26.0083 92.5378 27.1 91.7711 27.8C91.0044 28.4833 90.1378 28.95 89.1711 29.2L88.7961 31C88.4628 32.6167 87.8878 33.725 87.0711 34.325C86.2544 34.9417 85.3294 35.25 84.2961 35.25ZM84.4961 26.725C84.8794 26.725 85.2711 26.55 85.6711 26.2C86.0711 25.85 86.3461 25.375 86.4961 24.775L87.7711 18.85C87.7711 18.65 87.6878 18.45 87.5211 18.25C87.3544 18.0333 87.0961 17.925 86.7461 17.925C86.0794 17.925 85.4794 18.3167 84.9461 19.1C84.4128 19.8667 83.9961 20.8 83.6961 21.9C83.3961 22.9833 83.2461 23.9417 83.2461 24.775C83.2461 25.6083 83.3628 26.1417 83.5961 26.375C83.8461 26.6083 84.1461 26.725 84.4961 26.725ZM83.7211 33.3C84.0044 33.3 84.2794 33.1083 84.5461 32.725C84.8128 32.3417 85.0211 31.7917 85.1711 31.075L85.3211 30.35C83.6878 30.95 82.8711 31.6583 82.8711 32.475C82.8711 32.6917 82.9461 32.8833 83.0961 33.05C83.2461 33.2167 83.4544 33.3 83.7211 33.3ZM95.542 29.15C94.592 29.15 93.8003 28.825 93.167 28.175C92.5337 27.525 92.217 26.5083 92.217 25.125C92.217 23.8917 92.4587 22.6 92.942 21.25C93.442 19.8833 94.1753 18.7333 95.142 17.8C96.1253 16.85 97.292 16.375 98.642 16.375C99.3253 16.375 99.8337 16.4917 100.167 16.725C100.5 16.9583 100.667 17.2667 100.667 17.65V17.825L100.942 16.5H104.542L102.742 25C102.675 25.25 102.642 25.5167 102.642 25.8C102.642 26.5167 102.984 26.875 103.667 26.875C104.134 26.875 104.534 26.6583 104.867 26.225C105.217 25.7917 105.492 25.225 105.692 24.525H106.742C106.125 26.325 105.359 27.55 104.442 28.2C103.542 28.8333 102.634 29.15 101.717 29.15C101.017 29.15 100.45 28.9583 100.017 28.575C99.6003 28.175 99.3503 27.6 99.267 26.85C98.7837 27.5333 98.242 28.0917 97.642 28.525C97.0587 28.9417 96.3587 29.15 95.542 29.15ZM97.167 26.725C97.5837 26.725 97.992 26.5333 98.392 26.15C98.8087 25.75 99.092 25.2083 99.242 24.525L100.442 18.875C100.442 18.6583 100.359 18.45 100.192 18.25C100.025 18.0333 99.767 17.925 99.417 17.925C98.7503 17.925 98.1503 18.3167 97.617 19.1C97.0837 19.8667 96.667 20.8 96.367 21.9C96.067 22.9833 95.917 23.9417 95.917 24.775C95.917 25.6083 96.0337 26.1417 96.267 26.375C96.517 26.6083 96.817 26.725 97.167 26.725ZM107.401 16.5H111.001L110.676 18.05C111.243 17.55 111.751 17.1667 112.201 16.9C112.668 16.6333 113.168 16.5 113.701 16.5C114.235 16.5 114.651 16.6833 114.951 17.05C115.268 17.4167 115.426 17.8583 115.426 18.375C115.426 18.8583 115.268 19.2833 114.951 19.65C114.635 20.0167 114.193 20.2 113.626 20.2C113.26 20.2 113.01 20.1167 112.876 19.95C112.76 19.7667 112.668 19.5083 112.601 19.175C112.551 18.9583 112.501 18.8 112.451 18.7C112.401 18.6 112.31 18.55 112.176 18.55C111.826 18.55 111.526 18.625 111.276 18.775C111.043 18.9083 110.735 19.15 110.351 19.5L108.351 29H104.751L107.401 16.5Z" fill="black"/>
<defs>
<filter id="filter0_di" x="0" y="0" width="125" height="53" filterUnits="userSpaceOnUse" color-interpolation-filters="sRGB">
<feFlood flood-opacity="0" result="BackgroundImageFix"/>
<feColorMatrix in="SourceAlpha" type="matrix" values="0 0 0 0 0 0 0 0 0 0 0 0 0 0 0 0 0 0 127 0"/>
<feOffset dy="4"/>
<feGaussianBlur stdDeviation="2"/>
<feColorMatrix type="matrix" values="0 0 0 0 0 0 0 0 0 0 0 0 0 0 0 0 0 0 0.25 0"/>
<feBlend mode="normal" in2="BackgroundImageFix" result="effect1_dropShadow"/>
<feBlend mode="normal" in="SourceGraphic" in2="effect1_dropShadow" result="shape"/>
<feColorMatrix in="SourceAlpha" type="matrix" values="0 0 0 0 0 0 0 0 0 0 0 0 0 0 0 0 0 0 127 0" result="hardAlpha"/>
<feOffset dy="4"/>
<feGaussianBlur stdDeviation="2"/>
<feComposite in2="hardAlpha" operator="arithmetic" k2="-1" k3="1"/>
<feColorMatrix type="matrix" values="0 0 0 0 1 0 0 0 0 1 0 0 0 0 1 0 0 0 0.24 0"/>
<feBlend mode="normal" in2="shape" result="effect2_innerShadow"/>
</filter>
</defs>
</svg>
