<svg width="412" height="441" viewBox="0 0 412 441" fill="none" xmlns="http://www.w3.org/2000/svg">
<path d="M403 25L315 31L325 59H412L373 44L403 25Z" fill="#008B27"/>
<g filter="url(#filter0_d)">
<rect x="20" y="13" width="320" height="398" rx="30" fill="black" fill-opacity="0.59"/>
</g>
<rect x="28" y="23" width="304" height="378" rx="30" fill="#C4C4C4"/>
<ellipse cx="71.5" cy="42" rx="10.5" ry="9" fill="black" fill-opacity="0.3"/>
<ellipse cx="108.5" cy="42" rx="10.5" ry="9" fill="black" fill-opacity="0.3"/>
<ellipse cx="146.5" cy="42" rx="10.5" ry="9" fill="black" fill-opacity="0.3"/>
<ellipse cx="184.5" cy="42" rx="10.5" ry="9" fill="black" fill-opacity="0.3"/>
<ellipse cx="222.5" cy="42" rx="10.5" ry="9" fill="black" fill-opacity="0.3"/>
<ellipse cx="260.5" cy="42" rx="10.5" ry="9" fill="black" fill-opacity="0.3"/>
<ellipse cx="299.5" cy="42" rx="10.5" ry="9" fill="black" fill-opacity="0.3"/>
<path d="M47 300L50.1155 308.178C52.3303 313.992 59.9382 315.356 64.0352 310.674V310.674C66.8466 307.461 71.6447 306.923 75.0975 309.435L83.5465 315.579C87.6806 318.586 93.4627 317.716 96.5297 313.627V313.627C99.9447 309.074 106.601 308.601 110.625 312.625L111.6 313.6C115.558 317.558 122.07 317.222 125.599 312.878V312.878C129.056 308.623 135.399 308.2 139.392 311.957L140.801 313.283C145.327 317.543 152.45 317.32 156.7 312.786L157.834 311.578C161.364 307.812 167.136 307.24 171.337 310.24V310.24C175.238 313.027 180.545 312.754 184.14 309.582L188.348 305.87C191.808 302.816 197.19 303.65 199.564 307.607V307.607C201.895 311.492 207.143 312.381 210.623 309.481L211.407 308.828C214.148 306.544 218.045 306.278 221.07 308.169L224 310C228.773 312.983 234.923 312.564 239.247 308.961L242.258 306.452C246.679 302.767 253.154 302.956 257.352 306.893L259.002 308.439C262.822 312.02 268.853 311.708 272.283 307.751L272.414 307.599C275.933 303.539 282.195 303.423 285.861 307.351V307.351C289.625 311.384 296.09 311.137 299.536 306.83L305 300" stroke="black" stroke-opacity="0.1" stroke-width="3"/>
<rect x="65" width="12" height="48" rx="6" fill="black"/>
<rect x="103" width="12" height="48" rx="6" fill="black"/>
<rect x="141" width="12" height="48" rx="6" fill="black"/>
<rect x="179" width="12" height="48" rx="6" fill="black"/>
<rect x="217" width="12" height="48" rx="6" fill="black"/>
<rect x="255" width="12" height="48" rx="6" fill="black"/>
<rect x="293" width="12" height="48" rx="6" fill="black"/>
<path d="M48 131L51.1155 122.822C53.3303 117.008 60.9382 115.644 65.0352 120.326V120.326C67.8466 123.539 72.6447 124.077 76.0975 121.565L84.5465 115.421C88.6806 112.414 94.4627 113.284 97.5297 117.373V117.373C100.945 121.926 107.601 122.399 111.625 118.375L112.6 117.4C116.558 113.442 123.07 113.778 126.599 118.122V118.122C130.056 122.377 136.399 122.8 140.392 119.043L141.801 117.717C146.327 113.457 153.45 113.68 157.7 118.214L158.834 119.422C162.364 123.188 168.136 123.76 172.337 120.76V120.76C176.238 117.973 181.545 118.246 185.14 121.418L189.348 125.13C192.808 128.184 198.19 127.35 200.564 123.393V123.393C202.895 119.508 208.143 118.619 211.623 121.519L212.407 122.172C215.148 124.456 219.045 124.722 222.07 122.831L225 121C229.773 118.017 235.923 118.436 240.247 122.039L243.258 124.548C247.679 128.233 254.154 128.044 258.352 124.107L260.002 122.561C263.822 118.98 269.853 119.292 273.283 123.249L273.414 123.401C276.933 127.461 283.195 127.577 286.861 123.649V123.649C290.625 119.616 297.09 119.863 300.536 124.17L306 131" stroke="black" stroke-opacity="0.1" stroke-width="3"/>
<path d="M48 197L51.1155 188.822C53.3303 183.008 60.9382 181.644 65.0352 186.326V186.326C67.8466 189.539 72.6447 190.077 76.0975 187.565L84.5465 181.421C88.6806 178.414 94.4627 179.284 97.5297 183.373V183.373C100.945 187.926 107.601 188.399 111.625 184.375L112.6 183.4C116.558 179.442 123.07 179.778 126.599 184.122V184.122C130.056 188.377 136.399 188.8 140.392 185.043L141.801 183.717C146.327 179.457 153.45 179.68 157.7 184.214L158.834 185.422C162.364 189.188 168.136 189.76 172.337 186.76V186.76C176.238 183.973 181.545 184.246 185.14 187.418L189.348 191.13C192.808 194.184 198.19 193.35 200.564 189.393V189.393C202.895 185.508 208.143 184.619 211.623 187.519L212.407 188.172C215.148 190.456 219.045 190.722 222.07 188.831L225 187C229.773 184.017 235.923 184.436 240.247 188.039L243.258 190.548C247.679 194.233 254.154 194.044 258.352 190.107L260.002 188.561C263.822 184.98 269.853 185.292 273.283 189.249L273.414 189.401C276.933 193.461 283.195 193.577 286.861 189.649V189.649C290.625 185.616 297.09 185.863 300.536 190.17L306 197" stroke="black" stroke-opacity="0.1" stroke-width="3"/>
<path d="M47 236L50.1155 244.178C52.3303 249.992 59.9382 251.356 64.0352 246.674V246.674C66.8466 243.461 71.6447 242.923 75.0975 245.435L83.5465 251.579C87.6806 254.586 93.4627 253.716 96.5297 249.627V249.627C99.9447 245.074 106.601 244.601 110.625 248.625L111.6 249.6C115.558 253.558 122.07 253.222 125.599 248.878V248.878C129.056 244.623 135.399 244.2 139.392 247.957L140.801 249.283C145.327 253.543 152.45 253.32 156.7 248.786L157.834 247.578C161.364 243.812 167.136 243.24 171.337 246.24V246.24C175.238 249.027 180.545 248.754 184.14 245.582L188.348 241.87C191.808 238.816 197.19 239.65 199.564 243.607V243.607C201.895 247.492 207.143 248.381 210.623 245.481L211.407 244.828C214.148 242.544 218.045 242.278 221.07 244.169L224 246C228.773 248.983 234.923 248.564 239.247 244.961L242.258 242.452C246.679 238.767 253.154 238.956 257.352 242.893L259.002 244.439C262.822 248.02 268.853 247.708 272.283 243.751L272.414 243.599C275.933 239.539 282.195 239.423 285.861 243.351V243.351C289.625 247.384 296.09 247.137 299.536 242.83L305 236" stroke="black" stroke-opacity="0.1" stroke-width="3"/>
<path d="M42 169H315" stroke="black"/>
<path d="M33 204H306" stroke="black"/>
<path d="M37 232H310" stroke="black"/>
<path d="M37 262H310" stroke="black"/>
<path d="M37 293H310" stroke="black"/>
<path d="M37 324H310" stroke="black"/>
<path d="M37 352H310" stroke="black"/>
<path d="M41 138H314" stroke="black"/>
<defs>
<filter id="filter0_d" x="0" y="3" width="360" height="438" filterUnits="userSpaceOnUse" color-interpolation-filters="sRGB">
<feFlood flood-opacity="0" result="BackgroundImageFix"/>
<feColorMatrix in="SourceAlpha" type="matrix" values="0 0 0 0 0 0 0 0 0 0 0 0 0 0 0 0 0 0 127 0"/>
<feOffset dy="10"/>
<feGaussianBlur stdDeviation="10"/>
<feColorMatrix type="matrix" values="0 0 0 0 0 0 0 0 0 0 0 0 0 0 0 0 0 0 0.5 0"/>
<feBlend mode="normal" in2="BackgroundImageFix" result="effect1_dropShadow"/>
<feBlend mode="normal" in="SourceGraphic" in2="effect1_dropShadow" result="shape"/>
</filter>
</defs>
</svg>
