<svg width="160" height="44" viewBox="0 0 160 44" fill="none" xmlns="http://www.w3.org/2000/svg">
<path d="M10.3125 2.75C6.14185 2.75 2.75 6.14185 2.75 10.3125V33.6875C2.75 35.3901 3.32202 36.9558 4.27539 38.2207C4.29419 38.2502 4.31299 38.2825 4.33716 38.3066C5.7229 40.0925 7.88208 41.25 10.3125 41.25H33.6875C36.1179 41.25 38.2771 40.0925 39.6602 38.3066C39.687 38.2825 39.7031 38.2502 39.7246 38.2207C40.678 36.9558 41.25 35.3901 41.25 33.6875V10.3125C41.25 6.14185 37.8582 2.75 33.6875 2.75H10.3125ZM10.3125 4.125H33.6875C37.0981 4.125 39.875 6.89917 39.875 10.3125V33.6875C39.875 34.4395 39.7327 35.1565 39.4883 35.8252C39.3943 35.7795 39.2949 35.75 39.1875 35.75C38.8088 35.75 38.5 36.0562 38.5 36.4375V37.5681C37.364 38.9727 35.6292 39.875 33.6875 39.875H10.3125C8.37085 39.875 6.63599 38.9727 5.5 37.5681V36.4375C5.5 36.0562 5.19116 35.75 4.8125 35.75C4.70508 35.75 4.60571 35.7795 4.51172 35.8252C4.26733 35.1565 4.125 34.4395 4.125 33.6875V10.3125C4.125 6.89917 6.90186 4.125 10.3125 4.125ZM10.3125 15.125C9.93384 15.125 9.625 15.4338 9.625 15.8125V16.5C9.625 16.8787 9.93384 17.1875 10.3125 17.1875C10.6912 17.1875 11 16.8787 11 16.5V15.8125C11 15.4338 10.6912 15.125 10.3125 15.125ZM18.1973 15.125C17.2358 15.125 16.3818 15.3022 15.6487 15.6541C15.552 15.7024 15.4553 15.7507 15.3586 15.8125C14.7598 16.1348 14.2441 16.5618 13.8252 17.0693C13.3445 17.6628 12.9792 18.3503 12.7402 19.1211C12.7241 19.1614 12.7134 19.2097 12.7053 19.25C12.4851 19.9778 12.375 20.7485 12.375 21.5515C12.375 21.9382 12.4019 22.3169 12.4502 22.6875C12.512 23.1333 12.6086 23.5737 12.7402 23.9954C12.9792 24.7634 13.3445 25.4429 13.8252 26.0364C13.8521 26.0686 13.8816 26.0981 13.9084 26.125C14.3757 26.6675 14.9612 27.1079 15.6487 27.4463C16.3818 27.7954 17.2358 27.9673 18.1973 27.9673C19.1667 27.9673 20.0127 27.7954 20.7432 27.4463C21.4307 27.1079 22.0134 26.6675 22.4727 26.125C22.5022 26.0981 22.5291 26.0686 22.5586 26.0364C23.0447 25.4429 23.4019 24.7634 23.6516 23.9954C23.7805 23.5737 23.8772 23.1333 23.9336 22.6875C23.9873 22.3169 24.0088 21.9382 24.0088 21.5515C24.0088 20.7485 23.9041 19.9778 23.6838 19.25C23.6758 19.2097 23.665 19.1614 23.6516 19.1211C23.4019 18.3503 23.0447 17.6628 22.5586 17.0693C22.137 16.5618 21.6294 16.1348 21.0305 15.8125C20.9338 15.7507 20.8372 15.7024 20.7432 15.6541C20.0127 15.3022 19.1667 15.125 18.1973 15.125ZM29.5759 15.125C28.7085 15.125 27.9888 15.2566 27.4329 15.5037C27.2261 15.5923 27.0327 15.6943 26.8608 15.8125C26.5574 15.9924 26.3103 16.2046 26.1035 16.4329C25.7812 16.7954 25.561 17.1875 25.4375 17.5984C25.3274 18.012 25.2656 18.3691 25.2656 18.6726C25.2656 18.8794 25.2791 19.0701 25.314 19.25C25.3489 19.5051 25.416 19.7307 25.5046 19.9375C25.6631 20.2812 25.8833 20.5686 26.1384 20.8103C26.3989 21.0439 26.7078 21.2373 27.0515 21.3796C27.3899 21.5112 27.739 21.6294 28.0989 21.7234L30.8005 22.3867C31.0745 22.4539 31.3564 22.5371 31.6465 22.6445C31.6787 22.6606 31.7136 22.6741 31.7432 22.6875C31.9902 22.7842 32.2158 22.8997 32.4226 23.0447C32.6482 23.2031 32.8362 23.3938 32.9785 23.6301C33.1182 23.8557 33.1853 24.1323 33.1853 24.4412C33.1853 24.8467 33.0833 25.2039 32.8899 25.4912C32.71 25.741 32.5059 25.9531 32.2588 26.125C32.2158 26.1599 32.1755 26.1868 32.1272 26.2136C31.8184 26.407 31.48 26.5439 31.1228 26.6272C30.7576 26.7158 30.4219 26.7588 30.1211 26.7588C29.5759 26.7588 29.0603 26.7078 28.585 26.6057C28.1392 26.509 27.7551 26.3506 27.4329 26.125C27.4114 26.1169 27.3979 26.1035 27.3765 26.0901C27.0408 25.8564 26.7722 25.5396 26.5789 25.1421C26.4607 24.9004 26.3801 24.6184 26.3398 24.2961C26.2915 23.9255 25.9934 23.6436 25.6228 23.6436H25.6174C25.1958 23.6355 24.8547 23.9927 24.895 24.4143C24.9299 24.8601 25.032 25.2576 25.1824 25.6174C25.2603 25.7947 25.3542 25.9666 25.459 26.125C25.6631 26.4553 25.9182 26.7373 26.2136 26.9709C26.6621 27.3228 27.2046 27.5833 27.8303 27.7551C28.448 27.9189 29.1301 28.0022 29.8445 28.0022C30.5669 28.0022 31.1926 27.9324 31.7136 27.8008C32.2292 27.6719 32.675 27.4919 33.0269 27.2798C33.384 27.0596 33.6741 26.8125 33.8809 26.5439C33.9883 26.3989 34.0796 26.262 34.1602 26.125C34.238 25.9934 34.2998 25.8645 34.3535 25.7383C34.4717 25.4724 34.5388 25.2173 34.5684 24.9836C34.6006 24.7581 34.614 24.5647 34.614 24.4197C34.614 23.9041 34.5254 23.4583 34.3535 23.093C34.2864 22.948 34.2085 22.8191 34.1145 22.6875C33.9829 22.4888 33.8245 22.3088 33.6392 22.1584C33.3438 21.9033 33 21.6912 32.6079 21.5273C32.2158 21.3555 31.8049 21.2158 31.3699 21.0977L28.4211 20.3699C28.1741 20.3162 27.9458 20.2463 27.739 20.1577C27.5269 20.0745 27.3496 19.959 27.1912 19.8274C27.0327 19.6904 26.9146 19.5239 26.8259 19.3333C26.8125 19.3037 26.7991 19.2769 26.791 19.25C26.7239 19.0781 26.6943 18.8848 26.6943 18.6592C26.6943 18.2322 26.7722 17.8669 26.9307 17.585C27.0864 17.3057 27.3013 17.0693 27.5537 16.8975C27.8169 16.7202 28.1257 16.5886 28.4775 16.5081C29.2107 16.3416 30.0566 16.3362 30.7791 16.5537C31.1497 16.6719 31.488 16.8384 31.77 17.064C32.0601 17.2761 32.2856 17.5581 32.4629 17.8831C32.5596 18.0549 32.6294 18.2456 32.6831 18.4524C32.7583 18.7881 33.0483 19.0352 33.3921 19.0352H33.3975C33.8594 19.0298 34.1951 18.6028 34.0984 18.1516C34.0366 17.8535 33.9426 17.5796 33.811 17.3325C33.5559 16.8438 33.2202 16.4302 32.8013 16.1079C32.6643 15.9978 32.5193 15.9011 32.3608 15.8125C32.052 15.6272 31.7002 15.4741 31.3296 15.3721C30.7737 15.2083 30.1882 15.125 29.5759 15.125ZM18.1973 16.5C18.9546 16.5 19.6072 16.6316 20.1443 16.8921C20.6948 17.1526 21.1326 17.4963 21.4924 17.9368C21.8066 18.3208 22.0537 18.7559 22.2336 19.25C22.2739 19.3386 22.3088 19.4353 22.3357 19.532C22.5371 20.1658 22.6338 20.8452 22.6338 21.5515C22.6338 21.9436 22.6042 22.3223 22.5425 22.6875C22.4941 22.9963 22.427 23.2917 22.3357 23.5818C22.145 24.1941 21.8684 24.7097 21.4978 25.1609C21.1675 25.553 20.7754 25.8779 20.2947 26.125C20.2463 26.1599 20.1926 26.1787 20.1443 26.2083C19.6072 26.4607 18.9546 26.5923 18.1973 26.5923C17.4426 26.5923 16.79 26.4607 16.2449 26.2002C16.1992 26.1787 16.1482 26.1519 16.1025 26.125C15.6138 25.8779 15.2136 25.553 14.8914 25.1555C14.5127 24.7097 14.2388 24.186 14.0508 23.5818C13.9622 23.2917 13.887 22.9963 13.8386 22.6875C13.7769 22.3223 13.75 21.9436 13.75 21.5515C13.75 20.8452 13.8521 20.1658 14.0508 19.532C14.0803 19.4353 14.1152 19.3386 14.1555 19.25C14.3274 18.7559 14.5745 18.3208 14.8914 17.9368C15.2485 17.4963 15.697 17.1606 16.2449 16.8921C16.79 16.6316 17.4426 16.5 18.1973 16.5ZM10.3125 18.5625C9.93384 18.5625 9.625 18.8713 9.625 19.25V26.8125C9.625 27.1912 9.93384 27.5 10.3125 27.5C10.6912 27.5 11 27.1912 11 26.8125V19.25C11 18.8713 10.6912 18.5625 10.3125 18.5625ZM8.25 35.75C7.87134 35.75 7.5625 36.0562 7.5625 36.4375V37.8125C7.5625 38.1938 7.87134 38.5 8.25 38.5C8.62866 38.5 8.9375 38.1938 8.9375 37.8125V36.4375C8.9375 36.0562 8.62866 35.75 8.25 35.75ZM11.6875 35.75C11.3088 35.75 11 36.0562 11 36.4375V37.8125C11 38.1938 11.3088 38.5 11.6875 38.5C12.0662 38.5 12.375 38.1938 12.375 37.8125V36.4375C12.375 36.0562 12.0662 35.75 11.6875 35.75ZM15.125 35.75C14.7463 35.75 14.4375 36.0562 14.4375 36.4375V37.8125C14.4375 38.1938 14.7463 38.5 15.125 38.5C15.5037 38.5 15.8125 38.1938 15.8125 37.8125V36.4375C15.8125 36.0562 15.5037 35.75 15.125 35.75ZM18.5625 35.75C18.1838 35.75 17.875 36.0562 17.875 36.4375V37.8125C17.875 38.1938 18.1838 38.5 18.5625 38.5C18.9412 38.5 19.25 38.1938 19.25 37.8125V36.4375C19.25 36.0562 18.9412 35.75 18.5625 35.75ZM22 35.75C21.6213 35.75 21.3125 36.0562 21.3125 36.4375V37.8125C21.3125 38.1938 21.6213 38.5 22 38.5C22.3787 38.5 22.6875 38.1938 22.6875 37.8125V36.4375C22.6875 36.0562 22.3787 35.75 22 35.75ZM25.4375 35.75C25.0588 35.75 24.75 36.0562 24.75 36.4375V37.8125C24.75 38.1938 25.0588 38.5 25.4375 38.5C25.8162 38.5 26.125 38.1938 26.125 37.8125V36.4375C26.125 36.0562 25.8162 35.75 25.4375 35.75ZM28.875 35.75C28.4963 35.75 28.1875 36.0562 28.1875 36.4375V37.8125C28.1875 38.1938 28.4963 38.5 28.875 38.5C29.2537 38.5 29.5625 38.1938 29.5625 37.8125V36.4375C29.5625 36.0562 29.2537 35.75 28.875 35.75ZM32.3125 35.75C31.9338 35.75 31.625 36.0562 31.625 36.4375V37.8125C31.625 38.1938 31.9338 38.5 32.3125 38.5C32.6912 38.5 33 38.1938 33 37.8125V36.4375C33 36.0562 32.6912 35.75 32.3125 35.75ZM35.75 35.75C35.3713 35.75 35.0625 36.0562 35.0625 36.4375V37.8125C35.0625 38.1938 35.3713 38.5 35.75 38.5C36.1287 38.5 36.4375 38.1938 36.4375 37.8125V36.4375C36.4375 36.0562 36.1287 35.75 35.75 35.75Z" fill="black"/>
<path d="M65.416 14.048H70.216C71.8 14.048 72.984 14.44 73.768 15.224C74.552 16.008 74.944 17.024 74.944 18.272C74.944 19.504 74.56 20.504 73.792 21.272C73.024 22.024 71.872 22.4 70.336 22.4H67.144V29H65.416V14.048ZM70.144 20.912C71.2 20.912 71.976 20.688 72.472 20.24C72.968 19.776 73.216 19.136 73.216 18.32C73.216 17.536 72.96 16.896 72.448 16.4C71.936 15.888 71.176 15.632 70.168 15.632H67.144V20.912H70.144ZM81.856 17.792C83.424 17.792 84.616 18.2 85.432 19.016C86.264 19.832 86.68 21.216 86.68 23.168V29H84.808V27.32C84.136 28.616 82.888 29.264 81.064 29.264C79.848 29.264 78.896 28.992 78.208 28.448C77.52 27.888 77.176 27.152 77.176 26.24C77.176 25.472 77.424 24.8 77.92 24.224C78.416 23.648 79.08 23.208 79.912 22.904C80.76 22.584 81.688 22.424 82.696 22.424C83.608 22.424 84.432 22.472 85.168 22.568C85.072 21.336 84.744 20.472 84.184 19.976C83.64 19.464 82.824 19.208 81.736 19.208C81.192 19.208 80.664 19.312 80.152 19.52C79.656 19.728 79.2 20.032 78.784 20.432L77.944 19.328C78.968 18.304 80.272 17.792 81.856 17.792ZM81.232 27.944C82.416 27.944 83.352 27.6 84.04 26.912C84.728 26.208 85.104 25.2 85.168 23.888C84.448 23.776 83.672 23.72 82.84 23.72C81.624 23.72 80.664 23.92 79.96 24.32C79.256 24.72 78.904 25.328 78.904 26.144C78.904 27.344 79.68 27.944 81.232 27.944ZM96.088 17.768C97.256 17.768 98.224 18.168 98.992 18.968L98.224 20.312L98.128 20.528L97.96 20.432C97.912 20.256 97.856 20.12 97.792 20.024C97.728 19.912 97.592 19.792 97.384 19.664C96.968 19.392 96.496 19.256 95.968 19.256C95.392 19.256 94.848 19.4 94.336 19.688C93.824 19.976 93.408 20.416 93.088 21.008C92.768 21.584 92.608 22.312 92.608 23.192V29.024H90.856V18.032H92.656L92.608 20.048C92.912 19.328 93.376 18.768 94 18.368C94.64 17.968 95.336 17.768 96.088 17.768ZM105.856 17.792C107.424 17.792 108.616 18.2 109.432 19.016C110.264 19.832 110.68 21.216 110.68 23.168V29H108.808V27.32C108.136 28.616 106.888 29.264 105.064 29.264C103.848 29.264 102.896 28.992 102.208 28.448C101.52 27.888 101.176 27.152 101.176 26.24C101.176 25.472 101.424 24.8 101.92 24.224C102.416 23.648 103.08 23.208 103.912 22.904C104.76 22.584 105.688 22.424 106.696 22.424C107.608 22.424 108.432 22.472 109.168 22.568C109.072 21.336 108.744 20.472 108.184 19.976C107.64 19.464 106.824 19.208 105.736 19.208C105.192 19.208 104.664 19.312 104.152 19.52C103.656 19.728 103.2 20.032 102.784 20.432L101.944 19.328C102.968 18.304 104.272 17.792 105.856 17.792ZM105.232 27.944C106.416 27.944 107.352 27.6 108.04 26.912C108.728 26.208 109.104 25.2 109.168 23.888C108.448 23.776 107.672 23.72 106.84 23.72C105.624 23.72 104.664 23.92 103.96 24.32C103.256 24.72 102.904 25.328 102.904 26.144C102.904 27.344 103.68 27.944 105.232 27.944ZM126.4 27.608H129.208V19.424H126.544V18.032H130.936V27.608H133.504V29H126.4V27.608ZM129.976 15.728C129.64 15.728 129.352 15.608 129.112 15.368C128.872 15.128 128.752 14.84 128.752 14.504C128.752 14.152 128.864 13.856 129.088 13.616C129.328 13.376 129.624 13.256 129.976 13.256C130.312 13.256 130.6 13.384 130.84 13.64C131.096 13.88 131.224 14.168 131.224 14.504C131.224 14.84 131.096 15.128 130.84 15.368C130.6 15.608 130.312 15.728 129.976 15.728ZM142 29.264C140.288 29.264 138.968 28.6 138.04 27.272C137.112 25.944 136.648 24.056 136.648 21.608C136.648 19.224 137.112 17.352 138.04 15.992C138.984 14.632 140.304 13.952 142 13.952C143.696 13.952 145.008 14.632 145.936 15.992C146.88 17.352 147.352 19.224 147.352 21.608C147.352 24.056 146.888 25.944 145.96 27.272C145.032 28.6 143.712 29.264 142 29.264ZM142 27.8C143.152 27.8 144.04 27.264 144.664 26.192C145.304 25.12 145.624 23.592 145.624 21.608C145.624 19.704 145.304 18.2 144.664 17.096C144.024 15.976 143.136 15.416 142 15.416C140.864 15.416 139.976 15.976 139.336 17.096C138.696 18.2 138.376 19.704 138.376 21.608C138.376 23.592 138.688 25.12 139.312 26.192C139.952 27.264 140.848 27.8 142 27.8ZM153.928 29.24C151.992 29.24 150.432 28.608 149.248 27.344L150.112 25.832L150.208 25.616L150.376 25.712C150.392 25.76 150.408 25.84 150.424 25.952C150.456 26.064 150.496 26.176 150.544 26.288C150.608 26.384 150.704 26.48 150.832 26.576C151.728 27.344 152.84 27.728 154.168 27.728C155.048 27.728 155.784 27.48 156.376 26.984C156.968 26.488 157.264 25.88 157.264 25.16C157.264 24.696 157.168 24.312 156.976 24.008C156.8 23.688 156.472 23.376 155.992 23.072C155.512 22.768 154.792 22.408 153.832 21.992C152.36 21.416 151.304 20.76 150.664 20.024C150.04 19.288 149.728 18.464 149.728 17.552C149.728 16.432 150.136 15.536 150.952 14.864C151.768 14.192 152.88 13.856 154.288 13.856C155.104 13.856 155.864 14.024 156.568 14.36C157.288 14.68 157.912 15.136 158.44 15.728L157.36 17.168L157.216 17.072C157.216 17.04 157.2 16.968 157.168 16.856C157.152 16.744 157.112 16.64 157.048 16.544C156.984 16.432 156.896 16.32 156.784 16.208C156.416 15.856 156.016 15.608 155.584 15.464C155.152 15.32 154.632 15.248 154.024 15.248C153.256 15.248 152.632 15.464 152.152 15.896C151.688 16.312 151.456 16.824 151.456 17.432C151.456 17.896 151.552 18.304 151.744 18.656C151.952 18.992 152.32 19.328 152.848 19.664C153.376 19.984 154.144 20.344 155.152 20.744C156.576 21.336 157.56 21.944 158.104 22.568C158.648 23.192 158.92 23.976 158.92 24.92C158.92 25.656 158.736 26.352 158.368 27.008C158.016 27.664 157.464 28.2 156.712 28.616C155.96 29.032 155.032 29.24 153.928 29.24Z" fill="black"/>
</svg>
