<svg width="160" height="117" viewBox="0 0 160 117" fill="none" xmlns="http://www.w3.org/2000/svg">
<g filter="url(#filter0_di)">
<rect x="32" y="64" width="117" height="45" rx="22.5" fill="#008B27" fill-opacity="0.5"/>
</g>
<path d="M10.3125 2.75C6.14185 2.75 2.75 6.14185 2.75 10.3125V33.6875C2.75 35.3901 3.32202 36.9558 4.27539 38.2207C4.29419 38.2502 4.31299 38.2825 4.33716 38.3066C5.7229 40.0925 7.88208 41.25 10.3125 41.25H33.6875C36.1179 41.25 38.2771 40.0925 39.6602 38.3066C39.687 38.2825 39.7031 38.2502 39.7246 38.2207C40.678 36.9558 41.25 35.3901 41.25 33.6875V10.3125C41.25 6.14185 37.8582 2.75 33.6875 2.75H10.3125ZM10.3125 4.125H33.6875C37.0981 4.125 39.875 6.89917 39.875 10.3125V33.6875C39.875 34.4395 39.7327 35.1565 39.4883 35.8252C39.3943 35.7795 39.2949 35.75 39.1875 35.75C38.8088 35.75 38.5 36.0562 38.5 36.4375V37.5681C37.364 38.9727 35.6292 39.875 33.6875 39.875H10.3125C8.37085 39.875 6.63599 38.9727 5.5 37.5681V36.4375C5.5 36.0562 5.19116 35.75 4.8125 35.75C4.70508 35.75 4.60571 35.7795 4.51172 35.8252C4.26733 35.1565 4.125 34.4395 4.125 33.6875V10.3125C4.125 6.89917 6.90186 4.125 10.3125 4.125ZM10.3125 15.125C9.93384 15.125 9.625 15.4338 9.625 15.8125V16.5C9.625 16.8787 9.93384 17.1875 10.3125 17.1875C10.6912 17.1875 11 16.8787 11 16.5V15.8125C11 15.4338 10.6912 15.125 10.3125 15.125ZM18.1973 15.125C17.2358 15.125 16.3818 15.3022 15.6487 15.6541C15.552 15.7024 15.4553 15.7507 15.3586 15.8125C14.7598 16.1348 14.2441 16.5618 13.8252 17.0693C13.3445 17.6628 12.9792 18.3503 12.7402 19.1211C12.7241 19.1614 12.7134 19.2097 12.7053 19.25C12.4851 19.9778 12.375 20.7485 12.375 21.5515C12.375 21.9382 12.4019 22.3169 12.4502 22.6875C12.512 23.1333 12.6086 23.5737 12.7402 23.9954C12.9792 24.7634 13.3445 25.4429 13.8252 26.0364C13.8521 26.0686 13.8816 26.0981 13.9084 26.125C14.3757 26.6675 14.9612 27.1079 15.6487 27.4463C16.3818 27.7954 17.2358 27.9673 18.1973 27.9673C19.1667 27.9673 20.0127 27.7954 20.7432 27.4463C21.4307 27.1079 22.0134 26.6675 22.4727 26.125C22.5022 26.0981 22.5291 26.0686 22.5586 26.0364C23.0447 25.4429 23.4019 24.7634 23.6516 23.9954C23.7805 23.5737 23.8772 23.1333 23.9336 22.6875C23.9873 22.3169 24.0088 21.9382 24.0088 21.5515C24.0088 20.7485 23.9041 19.9778 23.6838 19.25C23.6758 19.2097 23.665 19.1614 23.6516 19.1211C23.4019 18.3503 23.0447 17.6628 22.5586 17.0693C22.137 16.5618 21.6294 16.1348 21.0305 15.8125C20.9338 15.7507 20.8372 15.7024 20.7432 15.6541C20.0127 15.3022 19.1667 15.125 18.1973 15.125ZM29.5759 15.125C28.7085 15.125 27.9888 15.2566 27.4329 15.5037C27.2261 15.5923 27.0327 15.6943 26.8608 15.8125C26.5574 15.9924 26.3103 16.2046 26.1035 16.4329C25.7812 16.7954 25.561 17.1875 25.4375 17.5984C25.3274 18.012 25.2656 18.3691 25.2656 18.6726C25.2656 18.8794 25.2791 19.0701 25.314 19.25C25.3489 19.5051 25.416 19.7307 25.5046 19.9375C25.6631 20.2812 25.8833 20.5686 26.1384 20.8103C26.3989 21.0439 26.7078 21.2373 27.0515 21.3796C27.3899 21.5112 27.739 21.6294 28.0989 21.7234L30.8005 22.3867C31.0745 22.4539 31.3564 22.5371 31.6465 22.6445C31.6787 22.6606 31.7136 22.6741 31.7432 22.6875C31.9902 22.7842 32.2158 22.8997 32.4226 23.0447C32.6482 23.2031 32.8362 23.3938 32.9785 23.6301C33.1182 23.8557 33.1853 24.1323 33.1853 24.4412C33.1853 24.8467 33.0833 25.2039 32.8899 25.4912C32.71 25.741 32.5059 25.9531 32.2588 26.125C32.2158 26.1599 32.1755 26.1868 32.1272 26.2136C31.8184 26.407 31.48 26.5439 31.1228 26.6272C30.7576 26.7158 30.4219 26.7588 30.1211 26.7588C29.5759 26.7588 29.0603 26.7078 28.585 26.6057C28.1392 26.509 27.7551 26.3506 27.4329 26.125C27.4114 26.1169 27.3979 26.1035 27.3765 26.0901C27.0408 25.8564 26.7722 25.5396 26.5789 25.1421C26.4607 24.9004 26.3801 24.6184 26.3398 24.2961C26.2915 23.9255 25.9934 23.6436 25.6228 23.6436H25.6174C25.1958 23.6355 24.8547 23.9927 24.895 24.4143C24.9299 24.8601 25.032 25.2576 25.1824 25.6174C25.2603 25.7947 25.3542 25.9666 25.459 26.125C25.6631 26.4553 25.9182 26.7373 26.2136 26.9709C26.6621 27.3228 27.2046 27.5833 27.8303 27.7551C28.448 27.9189 29.1301 28.0022 29.8445 28.0022C30.5669 28.0022 31.1926 27.9324 31.7136 27.8008C32.2292 27.6719 32.675 27.4919 33.0269 27.2798C33.384 27.0596 33.6741 26.8125 33.8809 26.5439C33.9883 26.3989 34.0796 26.262 34.1602 26.125C34.238 25.9934 34.2998 25.8645 34.3535 25.7383C34.4717 25.4724 34.5388 25.2173 34.5684 24.9836C34.6006 24.7581 34.614 24.5647 34.614 24.4197C34.614 23.9041 34.5254 23.4583 34.3535 23.093C34.2864 22.948 34.2085 22.8191 34.1145 22.6875C33.9829 22.4888 33.8245 22.3088 33.6392 22.1584C33.3438 21.9033 33 21.6912 32.6079 21.5273C32.2158 21.3555 31.8049 21.2158 31.3699 21.0977L28.4211 20.3699C28.1741 20.3162 27.9458 20.2463 27.739 20.1577C27.5269 20.0745 27.3496 19.959 27.1912 19.8274C27.0327 19.6904 26.9146 19.5239 26.8259 19.3333C26.8125 19.3037 26.7991 19.2769 26.791 19.25C26.7239 19.0781 26.6943 18.8848 26.6943 18.6592C26.6943 18.2322 26.7722 17.8669 26.9307 17.585C27.0864 17.3057 27.3013 17.0693 27.5537 16.8975C27.8169 16.7202 28.1257 16.5886 28.4775 16.5081C29.2107 16.3416 30.0566 16.3362 30.7791 16.5537C31.1497 16.6719 31.488 16.8384 31.77 17.064C32.0601 17.2761 32.2856 17.5581 32.4629 17.8831C32.5596 18.0549 32.6294 18.2456 32.6831 18.4524C32.7583 18.7881 33.0483 19.0352 33.3921 19.0352H33.3975C33.8594 19.0298 34.1951 18.6028 34.0984 18.1516C34.0366 17.8535 33.9426 17.5796 33.811 17.3325C33.5559 16.8438 33.2202 16.4302 32.8013 16.1079C32.6643 15.9978 32.5193 15.9011 32.3608 15.8125C32.052 15.6272 31.7002 15.4741 31.3296 15.3721C30.7737 15.2083 30.1882 15.125 29.5759 15.125ZM18.1973 16.5C18.9546 16.5 19.6072 16.6316 20.1443 16.8921C20.6948 17.1526 21.1326 17.4963 21.4924 17.9368C21.8066 18.3208 22.0537 18.7559 22.2336 19.25C22.2739 19.3386 22.3088 19.4353 22.3357 19.532C22.5371 20.1658 22.6338 20.8452 22.6338 21.5515C22.6338 21.9436 22.6042 22.3223 22.5425 22.6875C22.4941 22.9963 22.427 23.2917 22.3357 23.5818C22.145 24.1941 21.8684 24.7097 21.4978 25.1609C21.1675 25.553 20.7754 25.8779 20.2947 26.125C20.2463 26.1599 20.1926 26.1787 20.1443 26.2083C19.6072 26.4607 18.9546 26.5923 18.1973 26.5923C17.4426 26.5923 16.79 26.4607 16.2449 26.2002C16.1992 26.1787 16.1482 26.1519 16.1025 26.125C15.6138 25.8779 15.2136 25.553 14.8914 25.1555C14.5127 24.7097 14.2388 24.186 14.0508 23.5818C13.9622 23.2917 13.887 22.9963 13.8386 22.6875C13.7769 22.3223 13.75 21.9436 13.75 21.5515C13.75 20.8452 13.8521 20.1658 14.0508 19.532C14.0803 19.4353 14.1152 19.3386 14.1555 19.25C14.3274 18.7559 14.5745 18.3208 14.8914 17.9368C15.2485 17.4963 15.697 17.1606 16.2449 16.8921C16.79 16.6316 17.4426 16.5 18.1973 16.5ZM10.3125 18.5625C9.93384 18.5625 9.625 18.8713 9.625 19.25V26.8125C9.625 27.1912 9.93384 27.5 10.3125 27.5C10.6912 27.5 11 27.1912 11 26.8125V19.25C11 18.8713 10.6912 18.5625 10.3125 18.5625ZM8.25 35.75C7.87134 35.75 7.5625 36.0562 7.5625 36.4375V37.8125C7.5625 38.1938 7.87134 38.5 8.25 38.5C8.62866 38.5 8.9375 38.1938 8.9375 37.8125V36.4375C8.9375 36.0562 8.62866 35.75 8.25 35.75ZM11.6875 35.75C11.3088 35.75 11 36.0562 11 36.4375V37.8125C11 38.1938 11.3088 38.5 11.6875 38.5C12.0662 38.5 12.375 38.1938 12.375 37.8125V36.4375C12.375 36.0562 12.0662 35.75 11.6875 35.75ZM15.125 35.75C14.7463 35.75 14.4375 36.0562 14.4375 36.4375V37.8125C14.4375 38.1938 14.7463 38.5 15.125 38.5C15.5037 38.5 15.8125 38.1938 15.8125 37.8125V36.4375C15.8125 36.0562 15.5037 35.75 15.125 35.75ZM18.5625 35.75C18.1838 35.75 17.875 36.0562 17.875 36.4375V37.8125C17.875 38.1938 18.1838 38.5 18.5625 38.5C18.9412 38.5 19.25 38.1938 19.25 37.8125V36.4375C19.25 36.0562 18.9412 35.75 18.5625 35.75ZM22 35.75C21.6213 35.75 21.3125 36.0562 21.3125 36.4375V37.8125C21.3125 38.1938 21.6213 38.5 22 38.5C22.3787 38.5 22.6875 38.1938 22.6875 37.8125V36.4375C22.6875 36.0562 22.3787 35.75 22 35.75ZM25.4375 35.75C25.0588 35.75 24.75 36.0562 24.75 36.4375V37.8125C24.75 38.1938 25.0588 38.5 25.4375 38.5C25.8162 38.5 26.125 38.1938 26.125 37.8125V36.4375C26.125 36.0562 25.8162 35.75 25.4375 35.75ZM28.875 35.75C28.4963 35.75 28.1875 36.0562 28.1875 36.4375V37.8125C28.1875 38.1938 28.4963 38.5 28.875 38.5C29.2537 38.5 29.5625 38.1938 29.5625 37.8125V36.4375C29.5625 36.0562 29.2537 35.75 28.875 35.75ZM32.3125 35.75C31.9338 35.75 31.625 36.0562 31.625 36.4375V37.8125C31.625 38.1938 31.9338 38.5 32.3125 38.5C32.6912 38.5 33 38.1938 33 37.8125V36.4375C33 36.0562 32.6912 35.75 32.3125 35.75ZM35.75 35.75C35.3713 35.75 35.0625 36.0562 35.0625 36.4375V37.8125C35.0625 38.1938 35.3713 38.5 35.75 38.5C36.1287 38.5 36.4375 38.1938 36.4375 37.8125V36.4375C36.4375 36.0562 36.1287 35.75 35.75 35.75Z" fill="black"/>
<path d="M65.416 14.048H70.216C71.8 14.048 72.984 14.44 73.768 15.224C74.552 16.008 74.944 17.024 74.944 18.272C74.944 19.504 74.56 20.504 73.792 21.272C73.024 22.024 71.872 22.4 70.336 22.4H67.144V29H65.416V14.048ZM70.144 20.912C71.2 20.912 71.976 20.688 72.472 20.24C72.968 19.776 73.216 19.136 73.216 18.32C73.216 17.536 72.96 16.896 72.448 16.4C71.936 15.888 71.176 15.632 70.168 15.632H67.144V20.912H70.144ZM81.856 17.792C83.424 17.792 84.616 18.2 85.432 19.016C86.264 19.832 86.68 21.216 86.68 23.168V29H84.808V27.32C84.136 28.616 82.888 29.264 81.064 29.264C79.848 29.264 78.896 28.992 78.208 28.448C77.52 27.888 77.176 27.152 77.176 26.24C77.176 25.472 77.424 24.8 77.92 24.224C78.416 23.648 79.08 23.208 79.912 22.904C80.76 22.584 81.688 22.424 82.696 22.424C83.608 22.424 84.432 22.472 85.168 22.568C85.072 21.336 84.744 20.472 84.184 19.976C83.64 19.464 82.824 19.208 81.736 19.208C81.192 19.208 80.664 19.312 80.152 19.52C79.656 19.728 79.2 20.032 78.784 20.432L77.944 19.328C78.968 18.304 80.272 17.792 81.856 17.792ZM81.232 27.944C82.416 27.944 83.352 27.6 84.04 26.912C84.728 26.208 85.104 25.2 85.168 23.888C84.448 23.776 83.672 23.72 82.84 23.72C81.624 23.72 80.664 23.92 79.96 24.32C79.256 24.72 78.904 25.328 78.904 26.144C78.904 27.344 79.68 27.944 81.232 27.944ZM96.088 17.768C97.256 17.768 98.224 18.168 98.992 18.968L98.224 20.312L98.128 20.528L97.96 20.432C97.912 20.256 97.856 20.12 97.792 20.024C97.728 19.912 97.592 19.792 97.384 19.664C96.968 19.392 96.496 19.256 95.968 19.256C95.392 19.256 94.848 19.4 94.336 19.688C93.824 19.976 93.408 20.416 93.088 21.008C92.768 21.584 92.608 22.312 92.608 23.192V29.024H90.856V18.032H92.656L92.608 20.048C92.912 19.328 93.376 18.768 94 18.368C94.64 17.968 95.336 17.768 96.088 17.768ZM105.856 17.792C107.424 17.792 108.616 18.2 109.432 19.016C110.264 19.832 110.68 21.216 110.68 23.168V29H108.808V27.32C108.136 28.616 106.888 29.264 105.064 29.264C103.848 29.264 102.896 28.992 102.208 28.448C101.52 27.888 101.176 27.152 101.176 26.24C101.176 25.472 101.424 24.8 101.92 24.224C102.416 23.648 103.08 23.208 103.912 22.904C104.76 22.584 105.688 22.424 106.696 22.424C107.608 22.424 108.432 22.472 109.168 22.568C109.072 21.336 108.744 20.472 108.184 19.976C107.64 19.464 106.824 19.208 105.736 19.208C105.192 19.208 104.664 19.312 104.152 19.52C103.656 19.728 103.2 20.032 102.784 20.432L101.944 19.328C102.968 18.304 104.272 17.792 105.856 17.792ZM105.232 27.944C106.416 27.944 107.352 27.6 108.04 26.912C108.728 26.208 109.104 25.2 109.168 23.888C108.448 23.776 107.672 23.72 106.84 23.72C105.624 23.72 104.664 23.92 103.96 24.32C103.256 24.72 102.904 25.328 102.904 26.144C102.904 27.344 103.68 27.944 105.232 27.944ZM126.4 27.608H129.208V19.424H126.544V18.032H130.936V27.608H133.504V29H126.4V27.608ZM129.976 15.728C129.64 15.728 129.352 15.608 129.112 15.368C128.872 15.128 128.752 14.84 128.752 14.504C128.752 14.152 128.864 13.856 129.088 13.616C129.328 13.376 129.624 13.256 129.976 13.256C130.312 13.256 130.6 13.384 130.84 13.64C131.096 13.88 131.224 14.168 131.224 14.504C131.224 14.84 131.096 15.128 130.84 15.368C130.6 15.608 130.312 15.728 129.976 15.728ZM142 29.264C140.288 29.264 138.968 28.6 138.04 27.272C137.112 25.944 136.648 24.056 136.648 21.608C136.648 19.224 137.112 17.352 138.04 15.992C138.984 14.632 140.304 13.952 142 13.952C143.696 13.952 145.008 14.632 145.936 15.992C146.88 17.352 147.352 19.224 147.352 21.608C147.352 24.056 146.888 25.944 145.96 27.272C145.032 28.6 143.712 29.264 142 29.264ZM142 27.8C143.152 27.8 144.04 27.264 144.664 26.192C145.304 25.12 145.624 23.592 145.624 21.608C145.624 19.704 145.304 18.2 144.664 17.096C144.024 15.976 143.136 15.416 142 15.416C140.864 15.416 139.976 15.976 139.336 17.096C138.696 18.2 138.376 19.704 138.376 21.608C138.376 23.592 138.688 25.12 139.312 26.192C139.952 27.264 140.848 27.8 142 27.8ZM153.928 29.24C151.992 29.24 150.432 28.608 149.248 27.344L150.112 25.832L150.208 25.616L150.376 25.712C150.392 25.76 150.408 25.84 150.424 25.952C150.456 26.064 150.496 26.176 150.544 26.288C150.608 26.384 150.704 26.48 150.832 26.576C151.728 27.344 152.84 27.728 154.168 27.728C155.048 27.728 155.784 27.48 156.376 26.984C156.968 26.488 157.264 25.88 157.264 25.16C157.264 24.696 157.168 24.312 156.976 24.008C156.8 23.688 156.472 23.376 155.992 23.072C155.512 22.768 154.792 22.408 153.832 21.992C152.36 21.416 151.304 20.76 150.664 20.024C150.04 19.288 149.728 18.464 149.728 17.552C149.728 16.432 150.136 15.536 150.952 14.864C151.768 14.192 152.88 13.856 154.288 13.856C155.104 13.856 155.864 14.024 156.568 14.36C157.288 14.68 157.912 15.136 158.44 15.728L157.36 17.168L157.216 17.072C157.216 17.04 157.2 16.968 157.168 16.856C157.152 16.744 157.112 16.64 157.048 16.544C156.984 16.432 156.896 16.32 156.784 16.208C156.416 15.856 156.016 15.608 155.584 15.464C155.152 15.32 154.632 15.248 154.024 15.248C153.256 15.248 152.632 15.464 152.152 15.896C151.688 16.312 151.456 16.824 151.456 17.432C151.456 17.896 151.552 18.304 151.744 18.656C151.952 18.992 152.32 19.328 152.848 19.664C153.376 19.984 154.144 20.344 155.152 20.744C156.576 21.336 157.56 21.944 158.104 22.568C158.648 23.192 158.92 23.976 158.92 24.92C158.92 25.656 158.736 26.352 158.368 27.008C158.016 27.664 157.464 28.2 156.712 28.616C155.96 29.032 155.032 29.24 153.928 29.24Z" fill="black"/>
<path d="M49.2 95.325C48.2 95.325 47.1833 94.8833 46.15 94L45.95 95H42.35L45.75 79.1L49.45 78.6L46.45 92.625C46.9167 92.9583 47.3917 93.125 47.875 93.125C48.825 93.125 49.6583 92.575 50.375 91.475C51.1083 90.375 51.675 88.975 52.075 87.275C52.475 85.575 52.675 83.8583 52.675 82.125C52.675 80.4917 52.35 79.3 51.7 78.55C51.0667 77.7833 50.175 77.4 49.025 77.4C47.775 77.4 46.65 77.65 45.65 78.15C44.6667 78.6333 43.8917 79.3333 43.325 80.25C42.7583 81.1667 42.475 82.2417 42.475 83.475C42.475 84.0917 42.5333 84.525 42.65 84.775C42.7667 85.0083 42.825 85.1417 42.825 85.175C41.9583 85.175 41.2917 84.9917 40.825 84.625C40.375 84.2583 40.15 83.6667 40.15 82.85C40.15 81.7167 40.575 80.6417 41.425 79.625C42.275 78.6083 43.4083 77.7917 44.825 77.175C46.2583 76.5583 47.8 76.25 49.45 76.25C51.7333 76.25 53.4167 76.925 54.5 78.275C55.5833 79.625 56.125 81.35 56.125 83.45C56.125 85.35 55.8 87.225 55.15 89.075C54.5167 90.9083 53.6667 92.4083 52.6 93.575C51.5333 94.7417 50.4 95.325 49.2 95.325ZM60.1521 95.15C58.9188 95.15 57.9605 94.8333 57.2771 94.2C56.5938 93.55 56.2521 92.5417 56.2521 91.175C56.2521 90.025 56.4771 88.7583 56.9271 87.375C57.3771 85.9917 58.1105 84.8 59.1271 83.8C60.1438 82.7833 61.4355 82.275 63.0021 82.275C64.8355 82.275 65.7521 83.075 65.7521 84.675C65.7521 85.6083 65.4855 86.4667 64.9521 87.25C64.4188 88.0333 63.7105 88.6667 62.8271 89.15C61.9438 89.6167 61.0021 89.8833 60.0021 89.95C59.9688 90.45 59.9521 90.7833 59.9521 90.95C59.9521 91.7667 60.0938 92.325 60.3771 92.625C60.6605 92.9083 61.1188 93.05 61.7521 93.05C62.6521 93.05 63.4188 92.8417 64.0521 92.425C64.7021 92.0083 65.4105 91.375 66.1771 90.525H67.0271C65.1771 93.6083 62.8855 95.15 60.1521 95.15ZM60.2021 88.75C60.8188 88.7167 61.4021 88.5 61.9521 88.1C62.5188 87.7 62.9688 87.1917 63.3021 86.575C63.6521 85.9583 63.8271 85.3083 63.8271 84.625C63.8271 83.9417 63.6188 83.6 63.2021 83.6C62.6021 83.6 62.0105 84.125 61.4271 85.175C60.8605 86.225 60.4521 87.4167 60.2021 88.75ZM69.0219 95.15C68.2219 95.15 67.5469 95 66.9969 94.7C66.4469 94.3833 66.0385 93.9833 65.7719 93.5C65.5052 93 65.3719 92.4833 65.3719 91.95C65.3719 91.4 65.5052 90.925 65.7719 90.525C66.0219 90.1083 66.3302 89.8083 66.6969 89.625C67.3469 88.4583 67.9135 87.2833 68.3969 86.1C68.8802 84.9 69.3385 83.6083 69.7719 82.225L73.4719 81.725C73.5552 83.8583 73.6969 86.1667 73.8969 88.65C73.9802 89.65 74.0219 90.375 74.0219 90.825C74.0219 91.2083 73.9885 91.525 73.9219 91.775C74.7052 91.325 75.3052 90.9083 75.7219 90.525H76.7719C75.7052 91.7583 74.4302 92.8 72.9469 93.65C72.4635 94.1667 71.8635 94.55 71.1469 94.8C70.4469 95.0333 69.7385 95.15 69.0219 95.15ZM68.2219 93.175C68.8385 93.175 69.3552 92.9917 69.7719 92.625C70.1885 92.2583 70.3969 91.6667 70.3969 90.85C70.3969 90.35 70.3469 89.65 70.2469 88.75C70.0802 86.85 69.9719 85.575 69.9219 84.925C69.5219 86.2417 68.8469 87.8167 67.8969 89.65C68.2802 89.85 68.4719 90.1417 68.4719 90.525C68.4719 90.8417 68.3635 91.125 68.1469 91.375C67.9469 91.625 67.6885 91.75 67.3719 91.75C67.0219 91.75 66.7969 91.6417 66.6969 91.425C66.6969 92.025 66.8135 92.4667 67.0469 92.75C67.2969 93.0333 67.6885 93.175 68.2219 93.175ZM79.2928 95.15C78.0594 95.15 77.1011 94.8333 76.4178 94.2C75.7344 93.55 75.3928 92.5417 75.3928 91.175C75.3928 90.025 75.6178 88.7583 76.0678 87.375C76.5344 85.9917 77.2678 84.8 78.2678 83.8C79.2844 82.7833 80.5678 82.275 82.1178 82.275C83.1178 82.275 83.8261 82.4917 84.2428 82.925C84.6761 83.3583 84.8928 83.9083 84.8928 84.575C84.8928 85.1583 84.7678 85.6083 84.5178 85.925C84.2678 86.2417 83.9511 86.4 83.5678 86.4C83.2844 86.4 82.9928 86.3 82.6928 86.1C82.8928 85.55 82.9928 85.0583 82.9928 84.625C82.9928 84.3083 82.9344 84.0583 82.8178 83.875C82.7011 83.6917 82.5261 83.6 82.2928 83.6C81.7928 83.6 81.2928 84.0083 80.7928 84.825C80.2928 85.6417 79.8844 86.6333 79.5678 87.8C79.2511 88.9667 79.0928 90.0167 79.0928 90.95C79.0928 91.7667 79.2344 92.325 79.5178 92.625C79.8011 92.9083 80.2594 93.05 80.8928 93.05C81.7928 93.05 82.5594 92.8417 83.1928 92.425C83.8428 92.0083 84.5511 91.375 85.3178 90.525H86.1678C84.3178 93.6083 82.0261 95.15 79.2928 95.15ZM88.3125 95.15C87.3625 95.15 86.5708 94.825 85.9375 94.175C85.3042 93.525 84.9875 92.5083 84.9875 91.125C84.9875 89.8917 85.2292 88.6 85.7125 87.25C86.2125 85.8833 86.9458 84.7333 87.9125 83.8C88.8958 82.85 90.0625 82.375 91.4125 82.375C92.0958 82.375 92.6042 82.4917 92.9375 82.725C93.2708 82.9583 93.4375 83.2667 93.4375 83.65V83.825L93.7125 82.5H97.3125L95.5125 91C95.4458 91.25 95.4125 91.5167 95.4125 91.8C95.4125 92.5167 95.7542 92.875 96.4375 92.875C96.9042 92.875 97.3042 92.6583 97.6375 92.225C97.9875 91.7917 98.2625 91.225 98.4625 90.525H99.5125C98.8958 92.325 98.1292 93.55 97.2125 94.2C96.3125 94.8333 95.4042 95.15 94.4875 95.15C93.7875 95.15 93.2208 94.9583 92.7875 94.575C92.3708 94.175 92.1208 93.6 92.0375 92.85C91.5542 93.5333 91.0125 94.0917 90.4125 94.525C89.8292 94.9417 89.1292 95.15 88.3125 95.15ZM89.9375 92.725C90.3542 92.725 90.7625 92.5333 91.1625 92.15C91.5792 91.75 91.8625 91.2083 92.0125 90.525L93.2125 84.875C93.2125 84.6583 93.1292 84.45 92.9625 84.25C92.7958 84.0333 92.5375 83.925 92.1875 83.925C91.5208 83.925 90.9208 84.3167 90.3875 85.1C89.8542 85.8667 89.4375 86.8 89.1375 87.9C88.8375 88.9833 88.6875 89.9417 88.6875 90.775C88.6875 91.6083 88.8042 92.1417 89.0375 92.375C89.2875 92.6083 89.5875 92.725 89.9375 92.725ZM100.172 82.5H103.772L103.447 84.05C104.013 83.55 104.522 83.1667 104.972 82.9C105.438 82.6333 105.938 82.5 106.472 82.5C107.005 82.5 107.422 82.6833 107.722 83.05C108.038 83.4167 108.197 83.8583 108.197 84.375C108.197 84.8583 108.038 85.2833 107.722 85.65C107.405 86.0167 106.963 86.2 106.397 86.2C106.03 86.2 105.78 86.1167 105.647 85.95C105.53 85.7667 105.438 85.5083 105.372 85.175C105.322 84.9583 105.272 84.8 105.222 84.7C105.172 84.6 105.08 84.55 104.947 84.55C104.597 84.55 104.297 84.625 104.047 84.775C103.813 84.9083 103.505 85.15 103.122 85.5L101.122 95H97.5217L100.172 82.5ZM112.296 101.25C111.496 101.25 110.829 101.042 110.296 100.625C109.763 100.208 109.496 99.6083 109.496 98.825C109.496 97.875 109.879 97.1083 110.646 96.525C111.413 95.9583 112.388 95.4833 113.571 95.1L113.871 93.775C113.021 94.6917 112.021 95.15 110.871 95.15C109.921 95.15 109.129 94.825 108.496 94.175C107.863 93.525 107.546 92.5083 107.546 91.125C107.546 89.8917 107.788 88.6 108.271 87.25C108.771 85.8833 109.504 84.7333 110.471 83.8C111.454 82.85 112.621 82.375 113.971 82.375C114.654 82.375 115.163 82.4917 115.496 82.725C115.829 82.9583 115.996 83.2667 115.996 83.65V83.8L116.271 82.5H119.871L117.396 94.1C118.196 93.8333 118.838 93.4333 119.321 92.9C119.804 92.3667 120.213 91.575 120.546 90.525H121.596C121.146 92.0083 120.538 93.1 119.771 93.8C119.004 94.4833 118.138 94.95 117.171 95.2L116.796 97C116.463 98.6167 115.888 99.725 115.071 100.325C114.254 100.942 113.329 101.25 112.296 101.25ZM112.496 92.725C112.879 92.725 113.271 92.55 113.671 92.2C114.071 91.85 114.346 91.375 114.496 90.775L115.771 84.85C115.771 84.65 115.688 84.45 115.521 84.25C115.354 84.0333 115.096 83.925 114.746 83.925C114.079 83.925 113.479 84.3167 112.946 85.1C112.413 85.8667 111.996 86.8 111.696 87.9C111.396 88.9833 111.246 89.9417 111.246 90.775C111.246 91.6083 111.363 92.1417 111.596 92.375C111.846 92.6083 112.146 92.725 112.496 92.725ZM111.721 99.3C112.004 99.3 112.279 99.1083 112.546 98.725C112.813 98.3417 113.021 97.7917 113.171 97.075L113.321 96.35C111.688 96.95 110.871 97.6583 110.871 98.475C110.871 98.6917 110.946 98.8833 111.096 99.05C111.246 99.2167 111.454 99.3 111.721 99.3ZM123.542 95.15C122.592 95.15 121.8 94.825 121.167 94.175C120.534 93.525 120.217 92.5083 120.217 91.125C120.217 89.8917 120.459 88.6 120.942 87.25C121.442 85.8833 122.175 84.7333 123.142 83.8C124.125 82.85 125.292 82.375 126.642 82.375C127.325 82.375 127.834 82.4917 128.167 82.725C128.5 82.9583 128.667 83.2667 128.667 83.65V83.825L128.942 82.5H132.542L130.742 91C130.675 91.25 130.642 91.5167 130.642 91.8C130.642 92.5167 130.984 92.875 131.667 92.875C132.134 92.875 132.534 92.6583 132.867 92.225C133.217 91.7917 133.492 91.225 133.692 90.525H134.742C134.125 92.325 133.359 93.55 132.442 94.2C131.542 94.8333 130.634 95.15 129.717 95.15C129.017 95.15 128.45 94.9583 128.017 94.575C127.6 94.175 127.35 93.6 127.267 92.85C126.784 93.5333 126.242 94.0917 125.642 94.525C125.059 94.9417 124.359 95.15 123.542 95.15ZM125.167 92.725C125.584 92.725 125.992 92.5333 126.392 92.15C126.809 91.75 127.092 91.2083 127.242 90.525L128.442 84.875C128.442 84.6583 128.359 84.45 128.192 84.25C128.025 84.0333 127.767 83.925 127.417 83.925C126.75 83.925 126.15 84.3167 125.617 85.1C125.084 85.8667 124.667 86.8 124.367 87.9C124.067 88.9833 123.917 89.9417 123.917 90.775C123.917 91.6083 124.034 92.1417 124.267 92.375C124.517 92.6083 124.817 92.725 125.167 92.725ZM135.401 82.5H139.001L138.676 84.05C139.243 83.55 139.751 83.1667 140.201 82.9C140.668 82.6333 141.168 82.5 141.701 82.5C142.235 82.5 142.651 82.6833 142.951 83.05C143.268 83.4167 143.426 83.8583 143.426 84.375C143.426 84.8583 143.268 85.2833 142.951 85.65C142.635 86.0167 142.193 86.2 141.626 86.2C141.26 86.2 141.01 86.1167 140.876 85.95C140.76 85.7667 140.668 85.5083 140.601 85.175C140.551 84.9583 140.501 84.8 140.451 84.7C140.401 84.6 140.31 84.55 140.176 84.55C139.826 84.55 139.526 84.625 139.276 84.775C139.043 84.9083 138.735 85.15 138.351 85.5L136.351 95H132.751L135.401 82.5Z" fill="black"/>
<defs>
<filter id="filter0_di" x="28" y="64" width="125" height="53" filterUnits="userSpaceOnUse" color-interpolation-filters="sRGB">
<feFlood flood-opacity="0" result="BackgroundImageFix"/>
<feColorMatrix in="SourceAlpha" type="matrix" values="0 0 0 0 0 0 0 0 0 0 0 0 0 0 0 0 0 0 127 0"/>
<feOffset dy="4"/>
<feGaussianBlur stdDeviation="2"/>
<feColorMatrix type="matrix" values="0 0 0 0 0 0 0 0 0 0 0 0 0 0 0 0 0 0 0.25 0"/>
<feBlend mode="normal" in2="BackgroundImageFix" result="effect1_dropShadow"/>
<feBlend mode="normal" in="SourceGraphic" in2="effect1_dropShadow" result="shape"/>
<feColorMatrix in="SourceAlpha" type="matrix" values="0 0 0 0 0 0 0 0 0 0 0 0 0 0 0 0 0 0 127 0" result="hardAlpha"/>
<feOffset dy="4"/>
<feGaussianBlur stdDeviation="2"/>
<feComposite in2="hardAlpha" operator="arithmetic" k2="-1" k3="1"/>
<feColorMatrix type="matrix" values="0 0 0 0 1 0 0 0 0 1 0 0 0 0 1 0 0 0 0.24 0"/>
<feBlend mode="normal" in2="shape" result="effect2_innerShadow"/>
</filter>
</defs>
</svg>
