<svg width="375" height="62" viewBox="0 0 375 62" fill="none" xmlns="http://www.w3.org/2000/svg">
<path d="M22.464 57.976C22.464 58.8293 20.352 59.256 16.128 59.256C11.904 59.256 9.792 58.8293 9.792 57.976V25.848H2.112C1.38667 25.848 0.874667 24.8667 0.576 22.904C0.448 21.9653 0.384 21.0053 0.384 20.024C0.384 19.0427 0.448 18.0827 0.576 17.144C0.874667 15.1813 1.38667 14.2 2.112 14.2H29.952C30.6773 14.2 31.1893 15.1813 31.488 17.144C31.616 18.0827 31.68 19.0427 31.68 20.024C31.68 21.0053 31.616 21.9653 31.488 22.904C31.1893 24.8667 30.6773 25.848 29.952 25.848H22.464V57.976ZM35.507 55.224C32.8617 52.28 31.539 48.2053 31.539 43C31.539 37.7947 32.8617 33.72 35.507 30.776C38.195 27.832 41.8003 26.36 46.323 26.36C50.8457 26.36 54.4297 27.832 57.075 30.776C59.7203 33.72 61.043 37.7947 61.043 43C61.043 48.2053 59.7203 52.28 57.075 55.224C54.4297 58.168 50.8457 59.64 46.323 59.64C41.8003 59.64 38.195 58.168 35.507 55.224ZM46.323 37.048C43.9337 37.048 42.739 39.0107 42.739 42.936C42.739 46.8613 43.9337 48.824 46.323 48.824C48.755 48.824 49.971 46.8613 49.971 42.936C49.971 39.0107 48.755 37.048 46.323 37.048ZM94.5595 58.68C94.5595 58.9787 92.7248 59.128 89.0555 59.128C85.4288 59.128 83.6155 58.936 83.6155 58.552V39.928C83.6155 37.7947 82.9115 36.728 81.5035 36.728C80.7782 36.728 79.8182 37.1973 78.6235 38.136V58.616C78.6235 59.0427 76.7888 59.256 73.1195 59.256C69.4928 59.256 67.6795 59.0213 67.6795 58.552V37.624H66.0795C64.6715 37.624 63.9675 36.152 63.9675 33.208C63.9675 31.8853 64.2235 30.5413 64.7355 29.176C65.4182 27.2987 66.5275 26.36 68.0635 26.36C69.5995 26.36 71.0715 26.7653 72.4795 27.576C73.9302 28.3867 74.8048 29.1547 75.1035 29.88C77.7488 27.5333 80.6715 26.36 83.8715 26.36C87.1142 26.36 89.7168 27.3627 91.6795 29.368C93.9835 27.3627 96.7568 26.36 99.9995 26.36C107.04 26.36 110.56 30.648 110.56 39.224V58.68C110.56 58.9787 108.725 59.128 105.056 59.128C101.429 59.128 99.6155 58.936 99.6155 58.552V39.928C99.6155 37.7947 98.9115 36.728 97.5035 36.728C96.7355 36.728 95.7542 37.1973 94.5595 38.136V58.68ZM120.037 35.768C118.842 33.6347 118.245 31.9067 118.245 30.584C118.245 29.2187 118.608 28.344 119.333 27.96C121.765 26.8933 125.093 26.36 129.317 26.36C133.584 26.36 136.592 27.3627 138.341 29.368C140.09 31.3307 140.965 34.2533 140.965 38.136V48.248H143.141C143.866 48.248 144.421 48.6747 144.805 49.528C145.232 50.3813 145.445 51.5547 145.445 53.048C145.445 54.5413 145.061 56.0133 144.293 57.464C143.568 58.9147 142.565 59.64 141.285 59.64C138.981 59.64 137.125 59.0213 135.717 57.784C135.077 57.272 134.586 56.6533 134.245 55.928C132.282 58.4027 129.232 59.64 125.093 59.64C121.978 59.64 119.354 58.5307 117.221 56.312C115.088 54.0933 114.021 51.4693 114.021 48.44C114.021 41.4853 118.181 38.008 126.501 38.008H130.021V37.368C130.021 36.2587 129.829 35.5547 129.445 35.256C129.104 34.9147 128.272 34.744 126.949 34.744C125.328 34.744 123.024 35.0853 120.037 35.768ZM125.157 47.544C125.157 48.4827 125.413 49.208 125.925 49.72C126.437 50.1893 127.077 50.424 127.845 50.424C128.656 50.424 129.381 50.104 130.021 49.464V44.536H128.229C126.181 44.536 125.157 45.5387 125.157 47.544ZM184.46 57.592C184.46 58.488 182.454 58.936 178.444 58.936C174.433 58.936 172.257 58.616 171.916 57.976L161.228 38.008V57.912C161.228 58.68 159.244 59.064 155.276 59.064C151.35 59.064 149.388 58.68 149.388 57.912V15.096C149.388 14.456 151.073 14.136 154.444 14.136C155.766 14.136 157.302 14.264 159.052 14.52C160.844 14.7333 161.932 15.16 162.316 15.8L172.556 35.512V15.416C172.556 14.6053 174.54 14.2 178.507 14.2C182.476 14.2 184.46 14.6053 184.46 15.416V57.592ZM193.32 55.224C190.674 52.28 189.352 48.2053 189.352 43C189.352 37.7947 190.674 33.72 193.32 30.776C196.008 27.832 199.613 26.36 204.135 26.36C208.658 26.36 212.242 27.832 214.888 30.776C217.533 33.72 218.856 37.7947 218.856 43C218.856 48.2053 217.533 52.28 214.888 55.224C212.242 58.168 208.658 59.64 204.135 59.64C199.613 59.64 196.008 58.168 193.32 55.224ZM204.135 37.048C201.746 37.048 200.552 39.0107 200.552 42.936C200.552 46.8613 201.746 48.824 204.135 48.824C206.568 48.824 207.784 46.8613 207.784 42.936C207.784 39.0107 206.568 37.048 204.135 37.048ZM238.1 58.616C238.1 59.128 236.308 59.384 232.724 59.384C228.457 59.2133 226.324 58.936 226.324 58.552V35.896H223.06C222.207 35.896 221.78 34.424 221.78 31.48C221.78 30.712 221.844 29.7733 221.972 28.664C222.143 27.5547 222.463 27 222.932 27H226.324V21.368C226.324 20.5147 228.116 20.088 231.7 20.088C235.327 20.088 237.14 20.4293 237.14 21.112V25.208L237.204 27H242.644C243.369 27 243.732 28.4933 243.732 31.48C243.732 34.4667 243.369 35.96 242.644 35.96H238.1V58.616ZM250.975 35.768C249.78 33.6347 249.183 31.9067 249.183 30.584C249.183 29.2187 249.545 28.344 250.271 27.96C252.703 26.8933 256.031 26.36 260.255 26.36C264.521 26.36 267.529 27.3627 269.279 29.368C271.028 31.3307 271.903 34.2533 271.903 38.136V48.248H274.079C274.804 48.248 275.359 48.6747 275.743 49.528C276.169 50.3813 276.382 51.5547 276.382 53.048C276.382 54.5413 275.999 56.0133 275.231 57.464C274.505 58.9147 273.503 59.64 272.223 59.64C269.919 59.64 268.063 59.0213 266.655 57.784C266.015 57.272 265.524 56.6533 265.183 55.928C263.22 58.4027 260.169 59.64 256.031 59.64C252.916 59.64 250.292 58.5307 248.159 56.312C246.025 54.0933 244.959 51.4693 244.959 48.44C244.959 41.4853 249.119 38.008 257.439 38.008H260.958V37.368C260.958 36.2587 260.767 35.5547 260.383 35.256C260.041 34.9147 259.209 34.744 257.887 34.744C256.265 34.744 253.961 35.0853 250.975 35.768ZM256.095 47.544C256.095 48.4827 256.351 49.208 256.863 49.72C257.375 50.1893 258.015 50.424 258.783 50.424C259.593 50.424 260.319 50.104 260.958 49.464V44.536H259.167C257.119 44.536 256.095 45.5387 256.095 47.544Z" fill="black"/>
<path d="M366 25L278 31L288 59H375L336 44L366 25Z" fill="#008B27"/>
</svg>
